<?xml version="1.0" encoding="UTF-8" standalone="no"?>
<svg
   xmlns:dc="http://purl.org/dc/elements/1.1/"
   xmlns:cc="http://creativecommons.org/ns#"
   xmlns:rdf="http://www.w3.org/1999/02/22-rdf-syntax-ns#"
   xmlns:svg="http://www.w3.org/2000/svg"
   xmlns="http://www.w3.org/2000/svg"
   xmlns:sodipodi="http://sodipodi.sourceforge.net/DTD/sodipodi-0.dtd"
   xmlns:inkscape="http://www.inkscape.org/namespaces/inkscape"
   inkscape:version="1.0beta2 (2b71d25, 2019-12-03)"
   sodipodi:docname="fig1_motivating_example.svg"
   viewBox="0 0 1783.7528 456.77051"
   height="456.77051"
   width="1783.7528"
   xml:space="preserve"
   id="svg1311"
   version="1.1"><metadata
     id="metadata1317"><rdf:RDF><cc:Work
         rdf:about=""><dc:format>image/svg+xml</dc:format><dc:type
           rdf:resource="http://purl.org/dc/dcmitype/StillImage" /><dc:title></dc:title></cc:Work></rdf:RDF></metadata><defs
     id="defs1315" /><sodipodi:namedview
     inkscape:current-layer="g1319"
     inkscape:window-maximized="0"
     inkscape:window-y="23"
     inkscape:window-x="0"
     inkscape:cy="206.80052"
     inkscape:cx="850.61016"
     inkscape:zoom="0.40447629"
     showgrid="false"
     id="namedview1313"
     inkscape:window-height="614"
     inkscape:window-width="1354"
     inkscape:pageshadow="2"
     inkscape:pageopacity="0"
     guidetolerance="10"
     gridtolerance="10"
     objecttolerance="10"
     borderopacity="1"
     inkscape:document-rotation="0"
     bordercolor="#666666"
     pagecolor="#ffffff" /><g
     transform="matrix(1.3333333,0,0,-1.3333333,0,456.77051)"
     inkscape:label="fig1_motivating_example"
     inkscape:groupmode="layer"
     id="g1319"><g
       id="g1321"><path
         inkscape:connector-curvature="0"
         id="path1323"
         style="fill:none;stroke:#87cdde;stroke-width:2.25974;stroke-linecap:butt;stroke-linejoin:miter;stroke-miterlimit:4;stroke-dasharray:none;stroke-opacity:1"
         d="m 399.977,254.836 c 7.05,7.8 16.5,13.406 26.726,15.847 10.227,2.446 21.192,1.715 31.004,-2.062 9.242,-3.555 17.355,-9.68 26.711,-12.926 9.012,-3.125 18.98,-3.414 28.156,-0.812 9.176,2.597 17.512,8.074 23.543,15.461" /><path
         inkscape:connector-curvature="0"
         id="path1325"
         style="fill:none;stroke:#87cdde;stroke-width:2.25974;stroke-linecap:butt;stroke-linejoin:miter;stroke-miterlimit:4;stroke-dasharray:none;stroke-opacity:1"
         d="m 399.977,218.32 c 7.05,7.805 16.5,13.41 26.726,15.852 10.227,2.441 21.192,1.711 31.004,-2.063 9.242,-3.558 17.355,-9.68 26.711,-12.926 9.012,-3.125 18.98,-3.414 28.156,-0.816 9.176,2.602 17.512,8.078 23.543,15.465" /><path
         inkscape:connector-curvature="0"
         id="path1327"
         style="fill:none;stroke:#87cdde;stroke-width:2.25974;stroke-linecap:butt;stroke-linejoin:miter;stroke-miterlimit:4;stroke-dasharray:none;stroke-opacity:1"
         d="m 399.977,235.992 c 7.05,7.801 16.5,13.406 26.726,15.848 10.227,2.445 21.192,1.714 31.004,-2.063 9.242,-3.555 17.355,-9.68 26.711,-12.926 9.012,-3.125 18.98,-3.414 28.156,-0.812 9.176,2.597 17.512,8.074 23.543,15.461" /><path
         inkscape:connector-curvature="0"
         id="path1333"
         style="fill:#d38d5f;fill-opacity:1;fill-rule:nonzero;stroke:#d38d5f;stroke-width:2.83465;stroke-linecap:butt;stroke-linejoin:miter;stroke-miterlimit:4;stroke-dasharray:none;stroke-opacity:1"
         d="m 49.184,332.101 h 58.082 V 22.757 H 49.184 Z" /><g
         transform="matrix(1,0.696741,0.696741,-1,0,342.57788)"
         id="g1335"><path
           inkscape:connector-curvature="0"
           id="path1337"
           style="fill:#d38d5f;fill-opacity:1;fill-rule:nonzero;stroke:#d38d5f;stroke-width:1.12325;stroke-linecap:butt;stroke-linejoin:miter;stroke-miterlimit:4;stroke-dasharray:none;stroke-opacity:1"
           d="m -54.13,166.961 h 223.938 l -0.002,12.6 -223.936,-0.002 z" /></g><g
         transform="matrix(0.21749,1,0.949948,-0.380659,0,342.57788)"
         id="g1339"><path
           inkscape:connector-curvature="0"
           id="path1341"
           style="fill:#d38d5f;fill-opacity:1;fill-rule:nonzero;stroke:#d38d5f;stroke-width:0.265983;stroke-linecap:butt;stroke-linejoin:miter;stroke-miterlimit:4;stroke-dasharray:none;stroke-opacity:1"
           d="m 42.154,278.305 51.938,10e-4 v 3.047 l -51.938,-0.001 z" /></g><g
         transform="matrix(0.990648,-0.13917,-0.0274052,1,0,342.57788)"
         id="g1343"><path
           inkscape:connector-curvature="0"
           id="path1345"
           style="fill:#d38d5f;fill-opacity:1;fill-rule:nonzero;stroke:#d38d5f;stroke-width:0.392222;stroke-linecap:butt;stroke-linejoin:miter;stroke-miterlimit:4;stroke-dasharray:none;stroke-opacity:1"
           d="m 276.508,-33.05 76.588,-0.001 -0.002,4.492 -76.588,0.001 z" /></g><path
         inkscape:connector-curvature="0"
         id="path1347"
         style="fill:#917c6f;fill-opacity:1;fill-rule:evenodd;stroke:none"
         d="m 189.805,302.062 c 0,0 -0.879,2.918 -0.266,5.168 0.356,1.274 2.356,2.465 2.356,2.465 0,0 2.089,1.488 4.96,2.172 2.219,0.531 5.372,0.293 5.372,0.293 0,0 3.14,0.871 4.656,-0.274 1.847,-1.41 0.418,-4.132 0.418,-4.132 0,0 0.644,-1.149 2.011,-1.864 1.122,-0.586 3.02,-0.777 3.02,-0.777 0,0 0.387,-0.117 0.746,-0.449 0.324,-0.305 0.621,-0.848 0.621,-0.848 0,0 1.254,-0.387 1.582,-1.23 0.36,-0.899 -0.199,-2.266 -0.199,-2.266 0,0 0.106,-1.828 -0.258,-3.285 -0.234,-0.945 -1.004,-1.734 -1.004,-1.734 0,0 -1.621,-2.266 -4.09,-3.422 -1.867,-0.871 -4.757,-0.715 -4.757,-0.715 0,0 2.496,-3.442 3.527,-7.399 0.996,-3.816 0.512,-8.156 0.512,-8.156 0,0 -1.789,-7.254 -2.094,-12.234 -0.145,-2.321 1.062,-4.602 1.062,-4.602 0,0 1.614,-6.148 2.43,-11.812 0.676,-4.653 0.598,-9.016 0.598,-9.016 0,0 0.57,-0.887 1.078,-1.957 0.359,-0.766 0.707,-1.816 0.707,-1.816 0,0 2.281,-0.407 3.508,-1.164 0.738,-0.446 0.687,-1.399 0.687,-1.399 0,0 -0.226,-0.242 -0.652,-0.25 -0.414,0 -1.027,0.231 -1.027,0.231 0,0 -0.309,-0.629 -0.856,-0.875 -0.398,-0.184 -1.074,-0.012 -1.074,-0.012 0,0 -0.723,-0.375 -1.453,-0.445 -0.715,-0.055 -1.43,0.203 -1.43,0.203 0,0 -1.629,0.57 -2.57,1.418 -0.508,0.453 -0.633,1.445 -0.633,1.445 0,0 -0.043,0.535 -0.207,0.996 -0.137,0.395 -0.391,0.727 -0.391,0.727 0,0 -1.332,-1.219 -2.383,-1.489 -0.519,-0.129 -1.156,0.594 -1.156,0.594 0,0 -0.34,1.805 -0.926,3.301 -0.839,2.125 -2.015,4.156 -2.015,4.156 0,0 -1.656,0.969 -3.789,4.527 -1.477,2.461 -2.672,6.168 -3.973,8.774 -1.312,2.652 -2.723,4.184 -2.723,4.184 0,0 -0.714,-1.84 -1.808,-3.227 -0.902,-1.148 -2.223,-1.902 -2.223,-1.902 0,0 1.793,-4.262 2.485,-7.969 0.668,-3.574 0.238,-6.594 0.238,-6.594 0,0 -0.094,-0.875 -0.145,-2.074 -0.05,-1.172 -0.058,-2.652 0.075,-3.789 0.187,-1.625 1,-2.207 1,-2.207 0,0 0.675,0.07 1.691,0.484 0.769,0.309 1.758,0.934 2.598,1.235 1.23,0.429 2.41,0.632 2.41,0.632 0,0 1.758,0.211 3.617,-0.211 0.195,-0.043 0.684,-0.378 1.172,-0.507 0.515,-0.133 1.047,-0.063 1.394,-0.235 0.489,-0.234 0.286,-0.519 0.286,-0.519 0,0 0.101,-0.438 -0.118,-0.664 -0.175,-0.196 -0.687,-0.192 -0.687,-0.192 0,0 0.371,-0.769 0.168,-1.148 -0.215,-0.395 -0.996,-0.406 -0.996,-0.406 0,0 -0.578,0.23 -1.489,0.074 -0.867,-0.153 -2.074,-0.699 -2.074,-0.699 0,0 -1.886,-0.719 -3.57,-1.473 -1.363,-0.602 -2.602,-1.277 -2.602,-1.277 0,0 -2.547,-1.684 -4.093,-2.368 -0.864,-0.382 -1.477,0.196 -1.477,0.196 0,0 -0.176,-0.485 -0.668,-1.004 -0.559,-0.586 -1.105,-1.364 -1.105,-1.364 0,0 0.461,-0.316 1.093,-0.449 0.399,-0.078 1.078,0.004 1.078,0.004 0,0 1.438,0.633 2.368,0.942 0.425,0.14 0.781,0.089 0.781,0.089 0,0 0.918,0.543 1.598,0.801 0.386,0.141 0.711,0.059 0.711,0.059 0,0 0.472,-0.141 1.218,-0.289 0.758,-0.149 1.782,-0.309 2.254,-0.528 0.36,-0.16 -0.215,-0.683 -0.215,-0.683 0,0 0.219,-0.383 -0.172,-0.75 -0.312,-0.285 -1.257,-0.578 -1.257,-0.578 0,0 -0.493,-0.473 -1.161,-0.743 -1.312,-0.535 -3.539,-1.148 -5.375,-1.894 -1.668,-0.676 -2.898,-1.184 -2.898,-1.184 0,0 -2.187,-0.289 -3.648,0.219 -0.969,0.34 -1.403,1.551 -1.403,1.551 0,0 -1.617,1.199 -2.14,2.609 -0.231,0.621 0.363,2.196 0.363,2.196 0,0 0.281,1.152 0.586,2.496 0.254,1.101 0.535,2.437 0.535,2.437 0,0 0.18,1.219 0.109,2.684 -0.043,1.066 -0.347,2.25 -0.32,3.293 0.027,1.273 0.414,2.39 0.414,2.39 0,0 -2.234,0.895 -4.152,2.274 -2.379,1.719 -4.535,3.984 -4.535,3.984 0,0 -5.434,1.961 -9.95,4.934 -2.855,1.875 -5.586,5.281 -5.586,5.281 0,0 -0.855,-0.906 -1.324,-2.41 -0.871,-2.75 -1.609,-6.902 -1.609,-6.902 0,0 -0.852,-7.809 -0.731,-15.567 0.145,-8.969 1.262,-18.062 1.262,-18.062 0,0 1.305,-5.996 1.93,-10.434 0.402,-2.824 0.238,-4.832 0.238,-4.832 0,0 -0.715,-4.656 -2.543,-7.578 -1.664,-2.66 -4.473,-3.617 -4.473,-3.617 0,0 -1.761,-0.567 -2.074,-0.258 -0.297,0.281 0.864,1.441 0.864,1.441 0,0 2.058,2.114 3.117,4.629 1.027,2.445 1.054,5.297 1.054,5.297 0,0 -0.41,5.891 -1.386,11.981 -1.059,6.644 -2.68,13.542 -2.68,13.542 0,0 -0.746,7.458 -0.711,13.903 0.031,4.652 0.836,8.894 0.836,8.894 0,0 0.441,8.133 2.012,14.543 1.031,4.18 3.441,7.621 3.441,7.621 0,0 2.067,2.879 3.777,4.946 2.403,2.894 4.704,5.265 4.704,5.265 0,0 3.675,3.989 8,7.368 4.078,3.191 8.816,5.785 8.73,5.738 -0.129,-0.07 7.984,6.027 11.805,9.898 1.332,1.356 1.461,3.625 1.461,3.625" /><path
         inkscape:connector-curvature="0"
         id="path1349"
         style="fill:#784421;fill-opacity:1;fill-rule:evenodd;stroke:none"
         d="m 423.301,100.996 c 0,0 0,3.047 -1.235,5.023 -0.711,1.114 -2.972,1.68 -2.972,1.68 0,0 -2.43,0.82 -5.371,0.645 -2.282,-0.133 -5.231,-1.266 -5.231,-1.266 0,0 -3.258,-0.074 -4.375,-1.609 -1.367,-1.883 0.789,-4.079 0.789,-4.079 0,0 -0.285,-1.285 -1.386,-2.363 -0.903,-0.883 -2.668,-1.617 -2.668,-1.617 0,0 -0.336,-0.223 -0.586,-0.645 -0.219,-0.386 -0.348,-0.992 -0.348,-0.992 0,0 -1.086,-0.726 -1.16,-1.633 -0.086,-0.961 0.844,-2.109 0.844,-2.109 0,0 0.425,-1.785 1.195,-3.074 0.5,-0.836 1.461,-1.371 1.461,-1.371 0,0 2.211,-1.7 4.906,-2.094 2.039,-0.297 4.762,0.691 4.762,0.691 0,0 -1.399,-4.015 -1.242,-8.105 0.148,-3.938 1.863,-7.953 1.863,-7.953 0,0 3.812,-6.434 5.539,-11.114 0.805,-2.175 0.309,-4.71 0.309,-4.71 0,0 0.23,-6.352 1.085,-12.012 0.696,-4.649 2.028,-8.805 2.028,-8.805 0,0 -0.289,-1.012 -0.465,-2.183 -0.125,-0.836 -0.152,-1.946 -0.152,-1.946 0,0 -2.067,-1.047 -3.024,-2.125 -0.574,-0.64 -0.254,-1.539 -0.254,-1.539 0,0 0.289,-0.164 0.699,-0.051 0.395,0.121 0.915,0.52 0.915,0.52 0,0 0.48,-0.512 1.07,-0.59 0.437,-0.062 1.035,0.301 1.035,0.301 0,0 0.797,-0.152 1.52,-0.008 0.699,0.152 1.308,0.606 1.308,0.606 0,0 1.395,1.015 2.051,2.097 0.355,0.582 0.187,1.567 0.187,1.567 0,0 -0.113,0.527 -0.086,1.015 0.016,0.418 0.165,0.805 0.165,0.805 0,0 1.625,-0.781 2.711,-0.734 0.531,0.027 0.933,0.902 0.933,0.902 0,0 -0.195,1.828 -0.066,3.43 0.191,2.277 0.734,4.562 0.734,4.562 0,0 1.301,1.406 2.316,5.426 0.704,2.781 0.782,6.676 1.274,9.547 0.492,2.918 1.398,4.789 1.398,4.789 0,0 1.215,-1.551 2.664,-2.567 1.196,-0.839 2.676,-1.179 2.676,-1.179 0,0 -0.484,-4.594 -0.078,-8.344 0.391,-3.617 1.676,-6.387 1.676,-6.387 0,0 0.34,-0.804 0.738,-1.941 0.387,-1.106 0.82,-2.524 1.024,-3.649 0.289,-1.609 -0.325,-2.402 -0.325,-2.402 0,0 -0.668,-0.129 -1.757,-0.02 -0.829,0.071 -1.954,0.383 -2.844,0.43 -1.301,0.055 -2.489,-0.09 -2.489,-0.09 0,0 -1.746,-0.304 -3.402,-1.246 -0.176,-0.097 -0.547,-0.562 -0.976,-0.824 -0.457,-0.277 -0.985,-0.367 -1.27,-0.629 -0.398,-0.367 -0.121,-0.582 -0.121,-0.582 0,0 0.031,-0.445 0.305,-0.601 0.222,-0.137 0.711,0.019 0.711,0.019 0,0 -0.129,-0.844 0.171,-1.152 0.321,-0.313 1.071,-0.102 1.071,-0.102 0,0 0.488,0.391 1.406,0.5 0.875,0.106 2.184,-0.066 2.184,-0.066 0,0 2.015,-0.149 3.843,-0.383 1.481,-0.184 2.864,-0.473 2.864,-0.473 0,0 2.922,-0.875 4.601,-1.082 0.934,-0.117 1.36,0.614 1.36,0.614 0,0 0.308,-0.415 0.925,-0.77 0.704,-0.398 1.454,-0.984 1.454,-0.984 0,0 -0.352,-0.438 -0.918,-0.746 -0.356,-0.188 -1.032,-0.309 -1.032,-0.309 0,0 -1.558,0.191 -2.543,0.219 -0.441,0.011 -0.769,-0.137 -0.769,-0.137 0,0 -1.035,0.25 -1.762,0.305 -0.41,0.019 -0.695,-0.153 -0.695,-0.153 0,0 -0.414,-0.269 -1.086,-0.625 -0.68,-0.363 -1.617,-0.812 -2.008,-1.16 -0.293,-0.258 0.402,-0.59 0.402,-0.59 0,0 -0.097,-0.429 0.383,-0.672 0.383,-0.179 1.371,-0.187 1.371,-0.187 0,0 0.61,-0.309 1.324,-0.379 1.415,-0.129 3.723,-0.074 5.696,-0.258 1.793,-0.168 3.117,-0.297 3.117,-0.297 0,0 2.18,0.352 3.43,1.262 0.828,0.606 0.894,1.891 0.894,1.891 0,0 1.203,1.613 1.297,3.113 0.043,0.664 -0.98,2 -0.98,2 0,0 -0.606,1.019 -1.286,2.223 -0.558,0.976 -1.214,2.175 -1.214,2.175 0,0 -0.524,1.118 -0.879,2.539 -0.266,1.036 -0.317,2.254 -0.645,3.243 -0.39,1.214 -1.086,2.172 -1.086,2.172 0,0 1.883,1.5 3.321,3.375 1.781,2.332 3.191,5.125 3.191,5.125 0,0 4.637,3.445 8.101,7.593 2.192,2.621 3.825,6.668 3.825,6.668 0,0 1.078,-0.617 1.965,-1.922 1.625,-2.382 3.531,-6.148 3.531,-6.148 0,0 3.07,-7.227 5.195,-14.691 2.449,-8.629 4.004,-17.657 4.004,-17.657 0,0 0.48,-6.117 1.164,-10.543 0.434,-2.824 1.168,-4.699 1.168,-4.699 0,0 2.027,-4.25 4.621,-6.519 C 495.648,0.109 498.609,0 498.609,0 c 0,0 1.856,-0.028 2.067,0.355 0.203,0.352 -1.246,1.129 -1.246,1.129 0,0 -2.582,1.43 -4.321,3.535 -1.691,2.043 -2.539,4.766 -2.539,4.766 0,0 -1.304,5.758 -2.129,11.867 -0.906,6.668 -1.347,13.742 -1.347,13.742 0,0 -1.438,7.356 -3.332,13.516 -1.371,4.445 -3.367,8.273 -3.367,8.273 0,0 -2.77,7.661 -6.125,13.344 -2.196,3.707 -5.497,6.305 -5.497,6.305 0,0 -2.804,2.16 -5.043,3.644 -3.136,2.075 -6.019,3.684 -6.019,3.684 0,0 -4.672,2.754 -9.789,4.742 -4.824,1.879 -10.11,2.996 -10.016,2.973 0.145,-0.028 -9.383,3.469 -14.156,6.074 -1.668,0.91 -2.449,3.047 -2.449,3.047" /><path
         inkscape:connector-curvature="0"
         id="path1351"
         style="fill:#aa0000;fill-opacity:1;fill-rule:nonzero;stroke:none"
         d="m 365.688,227.469 c 0,0 6.191,7.792 5.066,20.164 -0.973,10.671 -10.125,11.386 -12.652,11.246 -2.184,-0.121 -3.965,-0.559 -5.29,-1.016 v -5.211 c 0.727,0.297 1.391,0.738 1.961,1.309 0.231,0.23 0.602,0.23 0.829,0 0.23,-0.227 0.23,-0.598 0,-0.828 -0.852,-0.852 -1.879,-1.461 -3,-1.797 -0.102,-0.082 -0.231,-0.137 -0.375,-0.137 h -0.18 c -0.488,-0.105 -0.996,-0.164 -1.508,-0.164 -0.516,0 -1.019,0.059 -1.512,0.164 h -0.179 c -0.145,0 -0.274,0.055 -0.375,0.137 -1.121,0.336 -2.149,0.945 -3,1.797 -0.227,0.23 -0.227,0.601 0,0.828 0.23,0.23 0.601,0.23 0.828,0 0.57,-0.571 1.238,-1.012 1.961,-1.309 v 4.883 c -1.375,0.578 -3.344,1.242 -5.344,1.344 -2.813,0.14 -11.926,-0.555 -12.652,-11.246 -0.844,-12.372 5.289,-20.164 5.289,-20.164 0,0 4.265,-7.536 13.297,-5.2 0.546,0.145 1.113,0.317 1.695,0.535 0.422,-0.218 0.832,-0.398 1.234,-0.558 8.239,-3.25 13.907,5.223 13.907,5.223" /><path
         inkscape:connector-curvature="0"
         id="path1353"
         style="fill:#217821;fill-opacity:1;fill-rule:nonzero;stroke:none"
         d="m 357.711,259.336 c 2.09,1.679 2.676,4.593 2.828,5.754 l -9.055,-7.274 c 1.168,-0.101 4.137,-0.16 6.227,1.52" /><path
         inkscape:connector-curvature="0"
         id="path1355"
         style="fill:#217821;fill-opacity:1;fill-rule:nonzero;stroke:none"
         d="m 354.293,263.441 c -2.016,-1.621 -2.629,-4.39 -2.809,-5.625 l 8.907,7.153 c -1.243,0.093 -4.079,0.089 -6.098,-1.528" /><path
         inkscape:connector-curvature="0"
         id="path1357"
         style="fill:#231f20;fill-opacity:1;fill-rule:nonzero;stroke:none"
         d="m 350.105,260.129 c -0.046,0 -0.089,0.007 -0.132,0.011 v -7.746 h 1.511 v 7.746 c -0.043,-0.004 -0.086,-0.011 -0.132,-0.011 h -1.247" /><path
         inkscape:connector-curvature="0"
         id="path1359"
         style="fill:#231f20;fill-opacity:1;fill-rule:nonzero;stroke:none"
         d="m 349.973,260.14 c 0.043,-0.004 0.086,-0.011 0.132,-0.011 h 1.247 c 0.046,0 0.089,0.007 0.132,0.011 0.313,0.032 0.59,0.164 0.801,0.371 0.25,0.243 0.403,0.579 0.403,0.95 0,0.738 -0.598,1.336 -1.336,1.336 h -1.247 c -0.738,0 -1.335,-0.598 -1.335,-1.336 0,-0.371 0.156,-0.707 0.402,-0.95 0.211,-0.207 0.492,-0.339 0.801,-0.371" /><text
         id="text1367"
         style="font-variant:normal;font-weight:normal;font-size:28px;font-family:Arial;-inkscape-font-specification:ArialMT;writing-mode:lr-tb;fill:#000000;fill-opacity:1;fill-rule:nonzero;stroke:none"
         transform="matrix(1,0,0,-1,840.8319,316.77752)"><tspan
           id="tspan1361"
           sodipodi:role="line"
           y="0"
           x="0 20.216 35.784 51.352001 65.351997 80.919998 87.136002 94.891998 101.108 116.76 124.516 140.084 149.408 164.976 180.54401 194.54401">Causal inference</tspan><tspan
           id="tspan1363"
           sodipodi:role="line"
           y="87.385033"
           x="-203.08826 -181.33226 -165.76425 -151.76425 -136.19626 -126.87225 -112.87225 -97.304253 -89.548256 -83.332253 -67.764259 -52.112255">Observation:</tspan><tspan
           id="tspan1365"
           sodipodi:role="line"
           y="240.97441"
           x="-203.08826 -195.33226 -179.76425 -172.00826 -156.44026 -147.11626 -133.11626 -117.54826 -101.98026 -94.224258 -88.008255 -72.440254 -56.788258">Intervention:</tspan></text><path
         inkscape:connector-curvature="0"
         id="path1369"
         style="fill:none;stroke:#000000;stroke-width:3.2;stroke-linecap:butt;stroke-linejoin:miter;stroke-miterlimit:4;stroke-dasharray:none;stroke-opacity:1"
         d="m 724.785,205.285 v -91.02" /><g
         transform="matrix(0,1,1,0,0,342.57788)"
         id="g1371"><path
           inkscape:connector-curvature="0"
           id="path1373"
           style="fill:#000000;fill-opacity:1;fill-rule:evenodd;stroke:#000000;stroke-width:1.6;stroke-linecap:butt;stroke-linejoin:miter;stroke-miterlimit:4;stroke-dasharray:none;stroke-opacity:1"
           d="m -215.512,724.785 6.403,-6.398 -22.403,6.398 22.403,6.403 z" /></g><text
         id="text1377"
         style="font-variant:normal;font-weight:normal;font-size:28px;font-family:Arial;-inkscape-font-specification:ArialMT;writing-mode:lr-tb;fill:#000000;fill-opacity:1;fill-rule:nonzero;stroke:none"
         transform="matrix(1,0,0,-1,735.79857,153.15981)"><tspan
           id="tspan1375"
           y="0"
           x="0">?</tspan></text><path
         inkscape:connector-curvature="0"
         id="path1379"
         style="fill:#767676;fill-opacity:1;fill-rule:evenodd;stroke:none"
         d="m 1195.73,75.195 c 0,-5.715 -4.66,-10.351 -10.406,-10.351 -5.75,0 -10.41,4.636 -10.41,10.351 0,5.719 4.66,10.356 10.41,10.356 5.746,0 10.406,-4.637 10.406,-10.356 z" /><path
         inkscape:connector-curvature="0"
         id="path1381"
         style="fill:#ff0000;fill-opacity:1;fill-rule:evenodd;stroke:none"
         d="m 1256.883,20.519 c 0,-5.715 -4.66,-10.351 -10.406,-10.351 -5.75,0 -10.407,4.636 -10.407,10.351 0,5.719 4.657,10.356 10.407,10.356 5.746,0 10.406,-4.637 10.406,-10.356 z" /><path
         inkscape:connector-curvature="0"
         id="path1383"
         style="fill:#767676;fill-opacity:1;fill-rule:evenodd;stroke:none"
         d="m 1314.488,75.09 c 0,-5.719 -4.66,-10.352 -10.406,-10.352 -5.75,0 -10.41,4.633 -10.41,10.352 0,5.718 4.66,10.351 10.41,10.351 5.746,0 10.406,-4.633 10.406,-10.351 z" /><text
         id="text1387"
         style="font-variant:normal;font-weight:normal;font-size:28px;font-family:Arial;-inkscape-font-specification:ArialMT;writing-mode:lr-tb;fill:#000000;fill-opacity:1;fill-rule:nonzero;stroke:none"
         transform="matrix(1,0,0,-1,1151.0294,316.77752)"><tspan
           id="tspan1385"
           sodipodi:role="line"
           y="0"
           x="0 15.568 31.136 46.703999 56.028 71.68 77.896004 93.463997 109.032 116.788 132.356 147.924 163.492 179.144">Learning agent</tspan></text><path
         inkscape:connector-curvature="0"
         id="path1389"
         style="fill:none;stroke:#000000;stroke-width:3.2;stroke-linecap:butt;stroke-linejoin:miter;stroke-miterlimit:4;stroke-dasharray:none;stroke-opacity:1"
         d="m 893.645,196.957 30.16,35.469" /><g
         transform="matrix(-0.850386,-1,-1,0.850386,0,342.57788)"
         id="g1391"><path
           inkscape:connector-curvature="0"
           id="path1393"
           style="fill:#000000;fill-opacity:1;fill-rule:evenodd;stroke:#000000;stroke-width:1.21887;stroke-linecap:butt;stroke-linejoin:miter;stroke-miterlimit:4;stroke-dasharray:none;stroke-opacity:1"
           d="m -382.224,-590.474 4.874,-4.875 -17.064,4.878 17.065,4.875 z" /></g><path
         inkscape:connector-curvature="0"
         id="path1395"
         style="fill:none;stroke:#000000;stroke-width:3.2;stroke-linecap:butt;stroke-linejoin:miter;stroke-miterlimit:4;stroke-dasharray:none;stroke-opacity:1"
         d="m 938.184,234.129 14.644,-51.395" /><g
         transform="matrix(-0.284884,1,1,0.284884,0,342.57788)"
         id="g1397"><path
           inkscape:connector-curvature="0"
           id="path1399"
           style="fill:#000000;fill-opacity:1;fill-rule:evenodd;stroke:#000000;stroke-width:1.53877;stroke-linecap:butt;stroke-linejoin:miter;stroke-miterlimit:4;stroke-dasharray:none;stroke-opacity:1"
           d="m -386.605,839.183 6.156,-6.156 -21.542,6.155 21.543,6.157 z" /></g><path
         inkscape:connector-curvature="0"
         id="path1401"
         style="fill:none;stroke:#000000;stroke-width:3.2;stroke-linecap:butt;stroke-linejoin:miter;stroke-miterlimit:4;stroke-dasharray:none;stroke-opacity:1"
         d="m 964.18,174.707 30.824,29.929" /><g
         transform="matrix(-1,-0.971002,-0.971002,1,0,342.57788)"
         id="g1403"><path
           inkscape:connector-curvature="0"
           id="path1405"
           style="fill:#000000;fill-opacity:1;fill-rule:evenodd;stroke:#000000;stroke-width:1.14789;stroke-linecap:butt;stroke-linejoin:miter;stroke-miterlimit:4;stroke-dasharray:none;stroke-opacity:1"
           d="m -434.013,-568.287 4.59,-4.59 -16.069,4.593 16.071,4.589 z" /></g><path
         inkscape:connector-curvature="0"
         id="path1407"
         style="fill:none;stroke:#000000;stroke-width:3.2;stroke-linecap:butt;stroke-linejoin:miter;stroke-miterlimit:4;stroke-dasharray:none;stroke-opacity:1"
         d="m 944.215,239.789 47.582,-18.024" /><g
         transform="matrix(-1,0.378775,0.378775,1,0,342.57788)"
         id="g1409"><path
           inkscape:connector-curvature="0"
           id="path1411"
           style="fill:#000000;fill-opacity:1;fill-rule:evenodd;stroke:#000000;stroke-width:1.49626;stroke-linecap:butt;stroke-linejoin:miter;stroke-miterlimit:4;stroke-dasharray:none;stroke-opacity:1"
           d="m -895.408,222.877 5.988,-5.983 -20.948,5.985 20.946,5.985 z" /></g><path
         inkscape:connector-curvature="0"
         id="path1413"
         style="fill:#767676;fill-opacity:1;fill-rule:evenodd;stroke:none"
         d="m 944.863,243.414 c 0,-5.719 -4.66,-10.356 -10.406,-10.356 -5.75,0 -10.41,4.637 -10.41,10.356 0,5.719 4.66,10.351 10.41,10.351 5.746,0 10.406,-4.632 10.406,-10.351 z" /><path
         inkscape:connector-curvature="0"
         id="path1415"
         style="fill:#767676;fill-opacity:1;fill-rule:evenodd;stroke:none"
         d="m 898.773,189.676 c 0,-5.719 -4.66,-10.352 -10.41,-10.352 -5.746,0 -10.406,4.633 -10.406,10.352 0,5.718 4.66,10.351 10.406,10.351 5.75,0 10.41,-4.633 10.41,-10.351 z" /><path
         inkscape:connector-curvature="0"
         id="path1417"
         style="fill:#767676;fill-opacity:1;fill-rule:evenodd;stroke:none"
         d="m 967.164,167.984 c 0,-5.719 -4.66,-10.351 -10.406,-10.351 -5.75,0 -10.406,4.632 -10.406,10.351 0,5.719 4.656,10.352 10.406,10.352 5.746,0 10.406,-4.633 10.406,-10.352 z" /><path
         inkscape:connector-curvature="0"
         id="path1419"
         style="fill:#767676;fill-opacity:1;fill-rule:evenodd;stroke:none"
         d="m 1016.727,215.312 c 0,-5.718 -4.661,-10.351 -10.411,-10.351 -5.746,0 -10.406,4.633 -10.406,10.351 0,5.719 4.66,10.352 10.406,10.352 5.75,0 10.411,-4.633 10.411,-10.352 z" /><path
         inkscape:connector-curvature="0"
         id="path1421"
         style="fill:none;stroke:#000000;stroke-width:3.2;stroke-linecap:butt;stroke-linejoin:miter;stroke-miterlimit:4;stroke-dasharray:none;stroke-opacity:1"
         d="m 893.645,48.933 30.16,35.469" /><g
         transform="matrix(-0.850386,-1,-1,0.850386,0,342.57788)"
         id="g1423"><path
           inkscape:connector-curvature="0"
           id="path1425"
           style="fill:#000000;fill-opacity:1;fill-rule:evenodd;stroke:#000000;stroke-width:1.21887;stroke-linecap:butt;stroke-linejoin:miter;stroke-miterlimit:4;stroke-dasharray:none;stroke-opacity:1"
           d="m -296.322,-663.524 4.874,-4.875 -17.063,4.877 17.064,4.876 z" /></g><path
         inkscape:connector-curvature="0"
         id="path1427"
         style="fill:none;stroke:#000000;stroke-width:3.2;stroke-linecap:butt;stroke-linejoin:miter;stroke-miterlimit:4;stroke-dasharray:none;stroke-opacity:1"
         d="m 964.18,26.683 30.824,29.93" /><g
         transform="matrix(-1,-0.971002,-0.971002,1,0,342.57788)"
         id="g1429"><path
           inkscape:connector-curvature="0"
           id="path1431"
           style="fill:#000000;fill-opacity:1;fill-rule:evenodd;stroke:#000000;stroke-width:1.14789;stroke-linecap:butt;stroke-linejoin:miter;stroke-miterlimit:4;stroke-dasharray:none;stroke-opacity:1"
           d="m -360.033,-644.476 4.59,-4.59 -16.069,4.593 16.071,4.589 z" /></g><path
         inkscape:connector-curvature="0"
         id="path1433"
         style="fill:none;stroke:#000000;stroke-width:3.2;stroke-linecap:butt;stroke-linejoin:miter;stroke-miterlimit:4;stroke-dasharray:none;stroke-opacity:1"
         d="M 944.215,91.765 991.797,73.742" /><g
         transform="matrix(-1,0.378775,0.378775,1,0,342.57788)"
         id="g1435"><path
           inkscape:connector-curvature="0"
           id="path1437"
           style="fill:#000000;fill-opacity:1;fill-rule:evenodd;stroke:#000000;stroke-width:1.49626;stroke-linecap:butt;stroke-linejoin:miter;stroke-miterlimit:4;stroke-dasharray:none;stroke-opacity:1"
           d="m -944.439,93.429 5.986,-5.986 -20.948,5.985 20.947,5.985 z" /></g><path
         inkscape:connector-curvature="0"
         id="path1439"
         style="fill:#767676;fill-opacity:1;fill-rule:evenodd;stroke:none"
         d="m 944.863,95.39 c 0,-5.718 -4.66,-10.355 -10.406,-10.355 -5.75,0 -10.41,4.637 -10.41,10.355 0,5.719 4.66,10.352 10.41,10.352 5.746,0 10.406,-4.633 10.406,-10.352 z" /><path
         inkscape:connector-curvature="0"
         id="path1441"
         style="fill:#767676;fill-opacity:1;fill-rule:evenodd;stroke:none"
         d="m 898.773,41.652 c 0,-5.719 -4.66,-10.351 -10.41,-10.351 -5.746,0 -10.406,4.632 -10.406,10.351 0,5.719 4.66,10.356 10.406,10.356 5.75,0 10.41,-4.637 10.41,-10.356 z" /><path
         inkscape:connector-curvature="0"
         id="path1443"
         style="fill:#ff0000;fill-opacity:1;fill-rule:evenodd;stroke:none"
         d="m 967.164,19.961 c 0,-5.719 -4.66,-10.352 -10.406,-10.352 -5.75,0 -10.406,4.633 -10.406,10.352 0,5.718 4.656,10.351 10.406,10.351 5.746,0 10.406,-4.633 10.406,-10.351 z" /><path
         inkscape:connector-curvature="0"
         id="path1445"
         style="fill:#767676;fill-opacity:1;fill-rule:evenodd;stroke:none"
         d="m 1016.727,67.289 c 0,-5.719 -4.661,-10.352 -10.411,-10.352 -5.746,0 -10.406,4.633 -10.406,10.352 0,5.719 4.66,10.351 10.406,10.351 5.75,0 10.411,-4.632 10.411,-10.351 z" /><path
         inkscape:connector-curvature="0"
         id="path1447"
         style="fill:#000000;fill-opacity:1;fill-rule:evenodd;stroke:none"
         d="m 848.453,280.992 0.129,0.785 2.074,8.293 c 0.262,1.066 0.328,1.156 1.637,1.156 h 2.934 c 2.531,0 4.144,-0.82 4.144,-2.922 0,-1.195 -0.609,-3.812 -1.797,-4.914 -1.531,-1.363 -3.351,-1.613 -4.703,-1.613 h -4.289 l -0.129,-0.785 h 5.18 c 4.332,0 8.566,3.164 8.566,6.578 0,2.348 -2.008,4.606 -6,4.606 h -9.875 c -0.582,0 -0.918,0 -0.918,-0.582 0,-0.368 0.278,-0.368 0.887,-0.368 0.391,0 0.949,-0.023 1.309,-0.054 0.492,-0.067 0.675,-0.153 0.675,-0.489 0,-0.121 -0.031,-0.218 -0.129,-0.582 l -4.082,-16.363 c -0.304,-1.191 -0.359,-1.434 -2.769,-1.434 -0.516,0 -0.852,0 -0.852,-0.585 0,-0.36 0.36,-0.36 0.446,-0.36 0.863,0 3.023,0.098 3.875,0.098 0.64,0 1.308,-0.043 1.949,-0.043 0.68,0 1.347,-0.055 1.988,-0.055 0.207,0 0.602,0 0.602,0.61 0,0.335 -0.266,0.335 -0.852,0.335 -1.125,0 -1.976,0 -1.976,0.547 0,0.176 0.054,0.328 0.085,0.512 z" /><path
         inkscape:connector-curvature="0"
         id="path1449"
         style="fill:#000000;fill-opacity:1;fill-rule:evenodd;stroke:none"
         d="m 873.16,264.047 v 0.054 l -0.004,0.012 v 0.008 l -0.008,0.012 -0.003,0.011 -0.008,0.012 -0.004,0.016 -0.016,0.015 -0.004,0.012 -0.023,0.039 -0.02,0.016 -0.011,0.019 -0.02,0.024 -0.012,0.015 -0.007,0.012 -0.036,0.035 -0.011,0.02 -0.024,0.023 -0.015,0.02 -0.016,0.011 -0.012,0.02 -0.019,0.016 -0.02,0.019 -0.012,0.02 -0.019,0.015 -0.016,0.02 -0.019,0.019 -0.02,0.016 -0.023,0.027 -0.02,0.016 -0.023,0.027 -0.02,0.016 -0.023,0.027 -0.024,0.024 c -3.804,3.839 -4.777,9.597 -4.777,14.257 0,5.305 1.156,10.618 4.899,14.414 0.39,0.375 0.39,0.434 0.39,0.528 0,0.215 -0.109,0.301 -0.293,0.301 -0.305,0 -3.047,-2.071 -4.844,-5.938 -1.562,-3.355 -1.921,-6.738 -1.921,-9.305 0,-2.378 0.332,-6.054 2.007,-9.503 1.821,-3.75 4.453,-5.727 4.758,-5.727 0.184,0 0.293,0.086 0.293,0.305 z" /><path
         inkscape:connector-curvature="0"
         id="path1451"
         style="fill:#000000;fill-opacity:1;fill-rule:evenodd;stroke:none"
         d="m 881.328,280.312 -0.105,0.02 -0.114,0.023 -0.117,0.028 -0.121,0.023 -0.125,0.023 -0.121,0.024 -0.258,0.062 -0.258,0.067 -0.125,0.039 -0.136,0.043 -0.121,0.043 -0.129,0.043 -0.121,0.047 -0.125,0.054 -0.118,0.055 -0.113,0.063 -0.109,0.066 -0.106,0.066 -0.097,0.071 -0.094,0.078 -0.086,0.078 -0.078,0.086 -0.074,0.094 -0.067,0.097 -0.055,0.102 -0.023,0.051 -0.02,0.054 -0.023,0.055 -0.019,0.062 -0.012,0.055 -0.012,0.063 -0.012,0.058 -0.007,0.071 v 0.058 l -0.008,0.067 c 0,1.886 2.836,1.886 3.414,1.886 2.289,0 3.445,-0.883 3.597,-2.551 0.024,-0.46 0.055,-0.613 0.7,-0.613 0.734,0 0.734,0.153 0.734,0.852 v 2.433 c 0,0.582 0,0.852 -0.559,0.852 -0.109,0 -0.175,0 -1.363,-0.574 -0.797,0.39 -1.867,0.574 -3.078,0.574 -0.918,0 -5.609,0 -5.609,-3.984 0,-1.223 0.613,-2.047 1.222,-2.563 1.211,-1.07 2.368,-1.254 4.723,-1.676 1.098,-0.191 3.383,-0.582 3.383,-2.379 0,-2.281 -2.801,-2.281 -3.481,-2.281 -3.23,0 -4.023,2.215 -4.386,3.535 -0.153,0.422 -0.305,0.422 -0.727,0.422 -0.734,0 -0.734,-0.183 -0.734,-0.883 v -3.328 c 0,-0.566 0,-0.847 0.55,-0.847 0.215,0 0.27,0 0.911,0.457 0.027,0 0.703,0.461 0.789,0.519 1.41,-0.976 2.992,-0.976 3.597,-0.976 0.95,0 5.641,0 5.641,4.445 0,1.316 -0.609,2.379 -1.676,3.23 -1.179,0.887 -2.164,1.071 -4.539,1.461 z" /><path
         inkscape:connector-curvature="0"
         id="path1453"
         style="fill:#000000;fill-opacity:1;fill-rule:evenodd;stroke:none"
         d="m 897.496,278.972 v 0.465 l -0.004,0.242 -0.008,0.25 -0.023,0.512 -0.039,0.539 -0.055,0.563 -0.058,0.582 -0.086,0.594 -0.098,0.617 -0.125,0.625 -0.141,0.629 -0.156,0.644 -0.191,0.649 -0.215,0.652 -0.238,0.656 -0.129,0.324 -0.141,0.325 -0.144,0.324 -0.153,0.324 c -1.824,3.742 -4.441,5.727 -4.75,5.727 -0.183,0 -0.304,-0.118 -0.304,-0.301 0,-0.094 0,-0.153 0.574,-0.703 2.992,-3.012 4.73,-7.864 4.73,-14.239 0,-5.203 -1.125,-10.57 -4.914,-14.41 -0.39,-0.363 -0.39,-0.429 -0.39,-0.515 0,-0.184 0.121,-0.305 0.304,-0.305 0.309,0 3.043,2.074 4.848,5.941 1.547,3.344 1.906,6.727 1.906,9.289 z" /><path
         inkscape:connector-curvature="0"
         id="path1455"
         style="fill:#000000;fill-opacity:1;fill-rule:evenodd;stroke:none"
         d="m 847.605,133.465 0.129,0.785 2.075,8.293 c 0.261,1.066 0.332,1.156 1.64,1.156 h 2.93 c 2.531,0 4.148,-0.82 4.148,-2.922 0,-1.195 -0.613,-3.812 -1.8,-4.914 -1.528,-1.363 -3.352,-1.613 -4.704,-1.613 h -4.289 l -0.129,-0.785 h 5.184 c 4.328,0 8.563,3.164 8.563,6.578 0,2.347 -2.008,4.605 -6,4.605 h -9.875 c -0.582,0 -0.918,0 -0.918,-0.582 0,-0.367 0.277,-0.367 0.886,-0.367 0.395,0 0.95,-0.023 1.313,-0.055 0.488,-0.066 0.672,-0.152 0.672,-0.488 0,-0.121 -0.032,-0.219 -0.129,-0.582 l -4.082,-16.363 c -0.305,-1.196 -0.36,-1.434 -2.77,-1.434 -0.515,0 -0.851,0 -0.851,-0.586 0,-0.359 0.363,-0.359 0.449,-0.359 0.859,0 3.019,0.097 3.871,0.097 0.641,0 1.309,-0.043 1.949,-0.043 0.68,0 1.348,-0.054 1.988,-0.054 0.211,0 0.602,0 0.602,0.609 0,0.336 -0.262,0.336 -0.852,0.336 -1.125,0 -1.976,0 -1.976,0.547 0,0.176 0.055,0.328 0.086,0.512 z" /><path
         inkscape:connector-curvature="0"
         id="path1457"
         style="fill:#000000;fill-opacity:1;fill-rule:evenodd;stroke:none"
         d="m 872.316,116.519 v 0.055 l -0.007,0.012 v 0.008 l -0.008,0.011 -0.004,0.012 -0.008,0.012 -0.004,0.015 -0.012,0.016 -0.007,0.012 -0.024,0.039 -0.019,0.015 -0.012,0.02 -0.02,0.023 -0.011,0.016 -0.004,0.012 -0.016,0.011 -0.023,0.024 -0.012,0.019 -0.023,0.024 -0.012,0.019 -0.02,0.012 -0.011,0.02 -0.02,0.015 -0.019,0.02 -0.012,0.019 -0.055,0.055 -0.019,0.016 -0.024,0.027 -0.109,0.109 c -3.805,3.84 -4.778,9.598 -4.778,14.258 0,5.305 1.157,10.617 4.899,14.414 0.394,0.375 0.394,0.434 0.394,0.527 0,0.215 -0.113,0.301 -0.296,0.301 -0.305,0 -3.047,-2.07 -4.844,-5.937 -1.559,-3.356 -1.922,-6.739 -1.922,-9.305 0,-2.379 0.332,-6.055 2.008,-9.504 1.824,-3.75 4.453,-5.726 4.758,-5.726 0.183,0 0.296,0.086 0.296,0.304 z" /><path
         inkscape:connector-curvature="0"
         id="path1459"
         style="fill:#000000;fill-opacity:1;fill-rule:evenodd;stroke:none"
         d="m 880.48,132.785 -0.101,0.019 -0.117,0.024 -0.117,0.027 -0.122,0.024 -0.125,0.023 -0.121,0.024 -0.257,0.062 -0.254,0.066 -0.129,0.04 -0.137,0.042 -0.121,0.043 -0.129,0.043 -0.121,0.047 -0.125,0.055 -0.113,0.055 -0.118,0.062 -0.109,0.067 -0.105,0.066 -0.098,0.07 -0.09,0.078 -0.086,0.079 -0.082,0.085 -0.074,0.094 -0.067,0.098 -0.054,0.101 -0.024,0.051 -0.019,0.055 -0.024,0.055 -0.019,0.062 -0.012,0.055 -0.012,0.062 -0.011,0.059 -0.008,0.066 v 0.063 l -0.004,0.066 c 0,1.887 2.832,1.887 3.414,1.887 2.285,0 3.441,-0.883 3.594,-2.551 0.027,-0.461 0.058,-0.613 0.699,-0.613 0.734,0 0.734,0.152 0.734,0.851 v 2.434 c 0,0.582 0,0.852 -0.558,0.852 -0.11,0 -0.176,0 -1.363,-0.575 -0.793,0.391 -1.868,0.575 -3.079,0.575 -0.918,0 -5.609,0 -5.609,-3.985 0,-1.222 0.613,-2.047 1.227,-2.562 1.211,-1.071 2.367,-1.254 4.722,-1.676 1.094,-0.191 3.383,-0.582 3.383,-2.379 0,-2.281 -2.805,-2.281 -3.484,-2.281 -3.227,0 -4.024,2.215 -4.383,3.535 -0.156,0.422 -0.309,0.422 -0.731,0.422 -0.734,0 -0.734,-0.184 -0.734,-0.883 v -3.328 c 0,-0.567 0,-0.848 0.551,-0.848 0.215,0 0.269,0 0.914,0.457 0.023,0 0.703,0.461 0.789,0.52 1.406,-0.977 2.988,-0.977 3.594,-0.977 0.949,0 5.64,0 5.64,4.446 0,1.316 -0.609,2.378 -1.675,3.23 -1.18,0.887 -2.165,1.07 -4.54,1.461 z" /><path
         inkscape:connector-curvature="0"
         id="path1461"
         style="fill:#000000;fill-opacity:1;fill-rule:evenodd;stroke:none"
         d="m 892.699,145.597 v 0.098 l -0.008,0.102 v 0.148 l -0.003,0.051 -0.008,0.047 v 0.051 l -0.008,0.042 -0.012,0.043 -0.004,0.04 -0.011,0.042 -0.016,0.043 -0.012,0.04 -0.012,0.035 -0.015,0.039 -0.02,0.035 -0.023,0.031 -0.027,0.031 -0.024,0.028 -0.031,0.027 -0.031,0.024 -0.012,0.007 -0.016,0.012 -0.019,0.012 -0.02,0.004 -0.019,0.007 -0.016,0.012 -0.027,0.008 -0.016,0.004 -0.023,0.008 -0.028,0.004 h -0.023 l -0.024,0.007 h -0.027 l -0.023,0.008 h -0.055 c -0.613,0 -0.613,-0.547 -0.613,-1.09 v -28.289 c 0,-0.55 0,-1.093 0.613,-1.093 0.613,0 0.613,0.543 0.613,1.093 z" /><path
         inkscape:connector-curvature="0"
         id="path1463"
         style="fill:#000000;fill-opacity:1;fill-rule:evenodd;stroke:none"
         d="m 907.875,125.5 v -2.004 l 4.473,0.336 v 0.945 c -2.129,0 -2.368,0.211 -2.368,1.703 v 18.504 l -4.386,-0.336 v -0.949 c 2.129,0 2.367,-0.207 2.367,-1.707 v -6.574 c -0.879,1.09 -2.191,1.879 -3.84,1.879 l 0.121,-0.668 c 1.07,0 2.348,-0.461 3.297,-1.825 0.336,-0.519 0.336,-0.585 0.336,-1.132 v -6.25 c 0,-0.543 0,-0.614 -0.336,-1.125 -0.918,-1.461 -2.293,-2.129 -3.601,-2.129 -1.368,0 -2.469,0.789 -3.196,1.945 -0.789,1.254 -0.887,2.992 -0.887,4.238 0,1.125 0.055,2.961 0.95,4.325 0.636,0.949 1.793,1.953 3.437,1.953 l -0.121,0.668 c -3.598,0 -6.797,-2.981 -6.797,-6.907 0,-3.875 2.988,-6.894 6.457,-6.894 1.953,0 3.328,1.031 4.094,2.004 z" /><path
         inkscape:connector-curvature="0"
         id="path1465"
         style="fill:#000000;fill-opacity:1;fill-rule:evenodd;stroke:none"
         d="m 927.605,130.351 -0.011,0.364 -0.028,0.359 -0.043,0.355 -0.058,0.348 -0.074,0.344 -0.094,0.336 -0.109,0.328 -0.118,0.324 -0.14,0.313 -0.145,0.308 -0.164,0.297 -0.18,0.289 -0.183,0.281 -0.203,0.27 -0.211,0.262 -0.227,0.246 -0.234,0.238 -0.242,0.227 -0.258,0.214 -0.266,0.196 -0.273,0.187 -0.282,0.172 -0.289,0.16 -0.296,0.149 -0.309,0.125 -0.313,0.113 -0.316,0.098 -0.324,0.078 -0.332,0.066 -0.336,0.043 -0.336,0.031 -0.348,0.008 -0.023,-0.668 c 1.332,0 2.648,-0.672 3.437,-1.984 0.793,-1.309 0.793,-3.074 0.793,-4.231 0,-1.101 0,-2.742 -0.664,-4.082 -0.676,-1.375 -2.015,-2.257 -3.543,-2.257 -1.308,0 -2.648,0.644 -3.468,2.039 -0.766,1.343 -0.766,3.199 -0.766,4.3 0,1.188 0,2.832 0.73,4.176 0.832,1.395 2.254,2.039 3.481,2.039 l 0.023,0.668 c -3.801,0 -6.765,-3.316 -6.765,-7.129 0,-3.933 3.175,-6.855 6.742,-6.855 3.687,0 6.765,2.984 6.765,6.855 z" /><path
         inkscape:connector-curvature="0"
         id="path1467"
         style="fill:#000000;fill-opacity:1;fill-rule:evenodd;stroke:none"
         d="m 938.598,116.519 v 0.051 l -0.008,0.004 v 0.012 l -0.004,0.008 v 0.011 l -0.008,0.012 -0.004,0.012 -0.008,0.015 -0.011,0.016 -0.008,0.012 -0.024,0.039 -0.019,0.015 -0.012,0.02 -0.015,0.023 -0.028,0.028 -0.004,0.011 -0.023,0.024 -0.016,0.019 -0.054,0.055 -0.016,0.02 -0.016,0.015 -0.015,0.02 -0.012,0.019 -0.02,0.016 -0.019,0.019 -0.016,0.02 -0.027,0.016 -0.016,0.027 -0.019,0.016 -0.024,0.027 -0.027,0.015 -0.016,0.028 -0.027,0.023 c -3.805,3.84 -4.777,9.598 -4.777,14.258 0,5.305 1.156,10.617 4.902,14.414 0.391,0.375 0.391,0.434 0.391,0.527 0,0.215 -0.118,0.301 -0.293,0.301 -0.309,0 -3.055,-2.07 -4.848,-5.937 -1.559,-3.356 -1.926,-6.739 -1.926,-9.305 0,-2.379 0.336,-6.055 2.012,-9.504 1.824,-3.75 4.453,-5.726 4.762,-5.726 0.175,0 0.293,0.086 0.293,0.304 z" /><path
         inkscape:connector-curvature="0"
         id="path1469"
         style="fill:#000000;fill-opacity:1;fill-rule:evenodd;stroke:none"
         d="m 952.25,135.234 -0.078,-0.008 -0.078,-0.004 -0.082,-0.011 -0.071,-0.02 -0.074,-0.019 -0.066,-0.024 -0.074,-0.023 -0.071,-0.028 -0.066,-0.027 -0.059,-0.039 -0.062,-0.035 -0.063,-0.039 -0.109,-0.086 -0.047,-0.043 -0.051,-0.047 -0.047,-0.051 -0.043,-0.047 -0.043,-0.054 -0.043,-0.051 -0.039,-0.055 -0.031,-0.058 -0.027,-0.059 -0.031,-0.059 -0.028,-0.054 -0.015,-0.063 -0.02,-0.062 -0.02,-0.059 -0.011,-0.062 -0.004,-0.067 -0.008,-0.062 v -0.063 c 0,-0.426 0.27,-0.879 0.941,-0.879 0.676,0 1.395,0.52 1.395,1.7 0,1.378 -1.301,2.621 -3.621,2.621 -4.024,0 -5.149,-3.102 -5.149,-4.442 0,-2.383 2.254,-2.84 3.137,-3.023 1.586,-0.305 3.168,-0.641 3.168,-2.313 0,-0.797 -0.695,-3.351 -4.355,-3.351 -0.426,0 -2.77,0 -3.481,1.613 1.168,-0.152 1.922,0.766 1.922,1.617 0,0.696 -0.488,1.071 -1.125,1.071 -0.797,0 -1.703,-0.645 -1.703,-2.02 0,-1.738 1.738,-2.953 4.355,-2.953 4.938,0 6.133,3.687 6.133,5.058 0,1.094 -0.582,1.86 -0.949,2.227 -0.82,0.848 -1.715,1.004 -3.047,1.277 -1.101,0.239 -2.32,0.457 -2.32,1.828 0,0.887 0.73,2.743 3.414,2.743 0.758,0 2.289,-0.207 2.746,-1.395 z" /><path
         inkscape:connector-curvature="0"
         id="path1471"
         style="fill:#000000;fill-opacity:1;fill-rule:evenodd;stroke:none"
         d="m 961.57,132.601 v 0.032 l -0.008,0.039 v 0.027 l -0.007,0.039 -0.004,0.031 -0.012,0.035 -0.008,0.032 -0.011,0.035 -0.02,0.039 -0.012,0.031 -0.019,0.035 -0.016,0.032 -0.019,0.035 -0.024,0.031 -0.019,0.031 -0.032,0.031 -0.023,0.032 -0.063,0.054 -0.027,0.028 -0.039,0.027 -0.035,0.016 -0.039,0.027 -0.035,0.016 -0.086,0.039 -0.051,0.011 -0.039,0.012 -0.059,0.008 -0.047,0.004 -0.054,0.008 h -0.055 c -0.574,0 -1.195,-0.559 -1.195,-1.176 0,-0.359 0.277,-0.813 0.863,-0.813 0.613,0 1.195,0.606 1.195,1.172 z" /><path
         inkscape:connector-curvature="0"
         id="path1473"
         style="fill:#000000;fill-opacity:1;fill-rule:evenodd;stroke:none"
         d="m 957.219,121.773 -0.031,-0.101 -0.036,-0.106 -0.019,-0.047 -0.012,-0.054 -0.019,-0.051 -0.036,-0.164 -0.011,-0.063 -0.008,-0.054 -0.012,-0.063 v -0.027 l -0.004,-0.032 v -0.136 c 0,-1.004 0.848,-1.805 2.012,-1.805 2.133,0 3.074,2.93 3.074,3.262 0,0.273 -0.273,0.273 -0.34,0.273 -0.293,0 -0.324,-0.121 -0.41,-0.359 -0.488,-1.707 -1.426,-2.582 -2.258,-2.582 -0.429,0 -0.531,0.277 -0.531,0.746 0,0.484 0.152,0.894 0.34,1.363 0.211,0.578 0.449,1.145 0.68,1.703 0.191,0.512 0.968,2.457 1.054,2.715 0.055,0.207 0.121,0.465 0.121,0.68 0,1.004 -0.851,1.805 -2.023,1.805 -2.113,0 -3.09,-2.895 -3.09,-3.262 0,-0.274 0.297,-0.274 0.367,-0.274 0.293,0 0.313,0.102 0.379,0.344 0.555,1.832 1.492,2.598 2.274,2.598 0.343,0 0.535,-0.172 0.535,-0.746 0,-0.485 -0.125,-0.809 -0.656,-2.129 z" /><path
         inkscape:connector-curvature="0"
         id="path1475"
         style="fill:#000000;fill-opacity:1;fill-rule:evenodd;stroke:none"
         d="m 994.176,133.801 h 0.254 l 0.05,0.007 h 0.043 l 0.043,0.008 0.043,0.004 0.043,0.008 0.043,0.004 0.043,0.008 0.043,0.011 0.035,0.012 0.079,0.023 0.031,0.02 0.039,0.02 0.031,0.023 0.027,0.02 0.032,0.027 0.023,0.027 0.027,0.031 0.012,0.016 0.012,0.02 0.008,0.011 0.011,0.02 0.004,0.019 0.02,0.039 0.008,0.028 0.004,0.015 0.007,0.028 0.004,0.023 v 0.024 l 0.008,0.023 v 0.082 c 0,0.609 -0.582,0.609 -1.004,0.609 h -18.254 c -0.429,0 -1.004,0 -1.004,-0.609 0,-0.601 0.575,-0.601 1.036,-0.601 z" /><path
         inkscape:connector-curvature="0"
         id="path1477"
         style="fill:#000000;fill-opacity:1;fill-rule:evenodd;stroke:none"
         d="m 994.199,127.879 h 0.078 l 0.086,0.007 h 0.129 l 0.043,0.008 0.043,0.004 h 0.043 l 0.043,0.008 0.035,0.012 0.043,0.004 0.043,0.015 0.039,0.012 0.071,0.023 0.07,0.036 0.035,0.027 0.023,0.023 0.032,0.024 0.023,0.031 0.016,0.012 0.011,0.019 0.012,0.012 0.012,0.02 0.012,0.015 0.007,0.02 0.004,0.019 0.012,0.016 0.008,0.027 0.008,0.016 0.004,0.027 0.007,0.024 0.004,0.023 v 0.023 l 0.008,0.028 v 0.078 c 0,0.613 -0.582,0.613 -1.027,0.613 h -18.199 c -0.461,0 -1.036,0 -1.036,-0.613 0,-0.613 0.575,-0.613 1.004,-0.613 z" /><path
         inkscape:connector-curvature="0"
         id="path1479"
         style="fill:#000000;fill-opacity:1;fill-rule:evenodd;stroke:none"
         d="m 1015.562,133.039 0.016,0.078 0.027,0.09 0.024,0.101 0.023,0.11 0.039,0.113 0.036,0.129 0.035,0.137 0.043,0.132 0.05,0.141 0.055,0.149 0.063,0.152 0.058,0.148 0.067,0.153 0.074,0.152 0.082,0.152 0.086,0.153 0.09,0.148 0.093,0.145 0.102,0.14 0.109,0.137 0.114,0.133 0.121,0.125 0.129,0.113 0.132,0.113 0.141,0.098 0.152,0.086 0.075,0.043 0.082,0.035 0.164,0.063 0.172,0.054 0.089,0.016 0.094,0.019 0.09,0.012 0.098,0.012 0.097,0.008 h 0.098 c 0.152,0 0.875,0 1.52,-0.391 -0.852,-0.152 -1.465,-0.918 -1.465,-1.648 0,-0.481 0.34,-1.071 1.156,-1.071 0.676,0 1.648,0.547 1.648,1.77 0,1.59 -1.8,2.008 -2.828,2.008 -1.773,0 -2.843,-1.618 -3.203,-2.313 -0.765,2.004 -2.414,2.313 -3.293,2.313 -3.168,0 -4.914,-3.93 -4.914,-4.696 0,-0.304 0.309,-0.304 0.375,-0.304 0.238,0 0.336,0.066 0.391,0.336 1.035,3.23 3.054,3.996 4.086,3.996 0.582,0 1.64,-0.27 1.64,-2.039 0,-0.942 -0.515,-2.989 -1.64,-7.254 -0.489,-1.891 -1.547,-3.168 -2.899,-3.168 -0.176,0 -0.883,0 -1.515,0.398 0.761,0.145 1.429,0.781 1.429,1.645 0,0.82 -0.668,1.058 -1.125,1.058 -0.918,0 -1.683,-0.789 -1.683,-1.769 0,-1.395 1.531,-2.004 2.871,-2.004 2.012,0 3.101,2.133 3.199,2.312 0.359,-1.129 1.461,-2.312 3.285,-2.312 3.149,0 4.887,3.926 4.887,4.691 0,0.305 -0.281,0.305 -0.371,0.305 -0.27,0 -0.34,-0.121 -0.395,-0.332 -1.004,-3.258 -3.074,-3.992 -4.054,-3.992 -1.192,0 -1.684,0.972 -1.684,2.011 0,0.672 0.184,1.34 0.527,2.68 z" /><path
         inkscape:connector-curvature="0"
         id="path1481"
         style="fill:#000000;fill-opacity:1;fill-rule:evenodd;stroke:none"
         d="m 1031.582,131.445 v 0.227 0.238 l -0.01,0.242 v 0.25 l -0.027,0.512 -0.035,0.539 -0.051,0.562 -0.066,0.582 -0.078,0.594 -0.106,0.617 -0.117,0.625 -0.141,0.629 -0.164,0.645 -0.187,0.648 -0.215,0.653 -0.238,0.656 -0.129,0.324 -0.282,0.648 -0.152,0.325 c -1.832,3.742 -4.449,5.726 -4.754,5.726 -0.183,0 -0.308,-0.117 -0.308,-0.301 0,-0.093 0,-0.152 0.578,-0.703 2.988,-3.011 4.726,-7.863 4.726,-14.238 0,-5.203 -1.125,-10.57 -4.91,-14.41 -0.394,-0.363 -0.394,-0.43 -0.394,-0.516 0,-0.183 0.125,-0.304 0.308,-0.304 0.305,0 3.039,2.074 4.844,5.941 1.547,3.344 1.914,6.727 1.914,9.289 z" /><path
         inkscape:connector-curvature="0"
         id="path1483"
         style="fill:#000000;fill-opacity:1;fill-rule:evenodd;stroke:none"
         d="m 1043.395,131.445 v 0.465 0.242 l -0.01,0.25 -0.024,0.512 -0.039,0.539 -0.054,0.562 -0.059,0.582 -0.086,0.594 -0.098,0.617 -0.125,0.625 -0.14,0.629 -0.156,0.645 -0.192,0.648 -0.215,0.653 -0.238,0.656 -0.129,0.324 -0.14,0.324 -0.145,0.324 -0.152,0.325 c -1.825,3.742 -4.442,5.726 -4.75,5.726 -0.184,0 -0.305,-0.117 -0.305,-0.301 0,-0.093 0,-0.152 0.57,-0.703 2.996,-3.011 4.735,-7.863 4.735,-14.238 0,-5.203 -1.125,-10.57 -4.914,-14.41 -0.391,-0.363 -0.391,-0.43 -0.391,-0.516 0,-0.183 0.121,-0.304 0.305,-0.304 0.308,0 3.043,2.074 4.847,5.941 1.547,3.344 1.907,6.727 1.907,9.289 z" /><path
         inkscape:connector-curvature="0"
         id="path1485"
         style="fill:#000000;fill-opacity:1;fill-rule:evenodd;stroke:none"
         d="m 1156.07,280.554 0.129,0.786 2.074,8.293 c 0.266,1.066 0.332,1.156 1.641,1.156 h 2.93 c 2.531,0 4.148,-0.82 4.148,-2.922 0,-1.195 -0.613,-3.813 -1.801,-4.914 -1.527,-1.363 -3.351,-1.613 -4.703,-1.613 h -4.289 l -0.129,-0.786 h 5.184 c 4.332,0 8.562,3.165 8.562,6.579 0,2.347 -2.004,4.605 -6,4.605 h -9.875 c -0.578,0 -0.914,0 -0.914,-0.582 0,-0.367 0.274,-0.367 0.887,-0.367 0.391,0 0.945,-0.024 1.309,-0.055 0.488,-0.066 0.672,-0.152 0.672,-0.488 0,-0.121 -0.032,-0.223 -0.129,-0.582 l -4.078,-16.363 c -0.309,-1.196 -0.364,-1.434 -2.774,-1.434 -0.512,0 -0.852,0 -0.852,-0.586 0,-0.359 0.364,-0.359 0.45,-0.359 0.863,0 3.019,0.097 3.871,0.097 0.644,0 1.308,-0.043 1.953,-0.043 0.676,0 1.344,-0.054 1.988,-0.054 0.207,0 0.598,0 0.598,0.609 0,0.336 -0.262,0.336 -0.852,0.336 -1.125,0 -1.972,0 -1.972,0.547 0,0.176 0.054,0.328 0.086,0.512 z" /><path
         inkscape:connector-curvature="0"
         id="path1487"
         style="fill:#000000;fill-opacity:1;fill-rule:evenodd;stroke:none"
         d="m 1180.781,263.609 v 0.055 l -0.01,0.012 v 0.007 0.012 l -0.01,0.012 v 0.012 l -0.01,0.011 -0.012,0.02 -0.01,0.011 -0.023,0.04 -0.019,0.015 -0.012,0.02 -0.02,0.023 -0.011,0.016 v 0.011 l -0.012,0.012 -0.016,0.012 -0.011,0.012 -0.012,0.019 -0.024,0.024 -0.011,0.019 -0.02,0.012 -0.012,0.019 -0.019,0.016 -0.031,0.039 -0.207,0.207 c -3.805,3.84 -4.778,9.598 -4.778,14.258 0,5.305 1.157,10.617 4.903,14.414 0.39,0.375 0.39,0.434 0.39,0.527 0,0.215 -0.109,0.297 -0.293,0.297 -0.308,0 -3.047,-2.066 -4.847,-5.933 -1.559,-3.356 -1.918,-6.739 -1.918,-9.305 0,-2.379 0.328,-6.055 2.004,-9.504 1.824,-3.75 4.453,-5.727 4.761,-5.727 0.184,0 0.293,0.086 0.293,0.305 z" /><path
         inkscape:connector-curvature="0"
         id="path1489"
         style="fill:#000000;fill-opacity:1;fill-rule:evenodd;stroke:none"
         d="m 1188.945,279.875 -0.101,0.019 -0.117,0.024 -0.118,0.027 -0.242,0.047 -0.125,0.023 -0.254,0.063 -0.258,0.066 -0.128,0.039 -0.137,0.043 -0.121,0.043 -0.129,0.043 -0.121,0.047 -0.121,0.055 -0.118,0.055 -0.117,0.062 -0.109,0.066 -0.106,0.067 -0.097,0.07 -0.09,0.078 -0.086,0.078 -0.082,0.086 -0.07,0.094 -0.071,0.098 -0.054,0.101 -0.024,0.051 -0.019,0.055 -0.024,0.054 -0.019,0.063 -0.012,0.055 -0.012,0.062 -0.011,0.059 -0.01,0.066 v 0.063 0.066 c 0,1.887 2.832,1.887 3.414,1.887 2.285,0 3.441,-0.883 3.598,-2.551 0.023,-0.461 0.054,-0.613 0.695,-0.613 0.734,0 0.734,0.152 0.734,0.851 v 2.434 c 0,0.582 0,0.851 -0.554,0.851 -0.114,0 -0.18,0 -1.368,-0.578 -0.793,0.395 -1.863,0.578 -3.074,0.578 -0.918,0 -5.609,0 -5.609,-3.984 0,-1.223 0.609,-2.047 1.222,-2.562 1.211,-1.071 2.368,-1.254 4.723,-1.676 1.094,-0.192 3.383,-0.582 3.383,-2.379 0,-2.281 -2.801,-2.281 -3.481,-2.281 -3.23,0 -4.027,2.211 -4.386,3.535 -0.153,0.422 -0.305,0.422 -0.731,0.422 -0.73,0 -0.73,-0.184 -0.73,-0.883 v -3.328 c 0,-0.567 0,-0.848 0.547,-0.848 0.215,0 0.269,0 0.914,0.457 0.023,0 0.703,0.461 0.789,0.52 1.406,-0.977 2.992,-0.977 3.597,-0.977 0.946,0 5.641,0 5.641,4.445 0,1.317 -0.613,2.379 -1.676,3.231 -1.183,0.887 -2.168,1.07 -4.543,1.461 z" /><path
         inkscape:connector-curvature="0"
         id="path1491"
         style="fill:#000000;fill-opacity:1;fill-rule:evenodd;stroke:none"
         d="m 1201.566,274.793 h 2.168 c 0.403,0 0.68,0 0.68,0.465 0,0.3 -0.277,0.3 -0.633,0.3 h -2.023 l 0.781,3.149 c 0.02,0.109 0.07,0.215 0.07,0.301 0,0.39 -0.297,0.683 -0.73,0.683 -0.531,0 -0.852,-0.359 -1.004,-0.918 -0.141,-0.531 0.137,0.492 -0.813,-3.215 h -2.164 c -0.406,0 -0.679,0 -0.679,-0.472 0,-0.293 0.242,-0.293 0.636,-0.293 h 2.016 l -1.254,-5.028 c -0.125,-0.539 -0.324,-1.304 -0.324,-1.578 0,-1.261 1.074,-2.027 2.289,-2.027 2.367,0 3.707,2.98 3.707,3.262 0,0.273 -0.273,0.273 -0.344,0.273 -0.25,0 -0.281,-0.047 -0.437,-0.402 -0.606,-1.344 -1.696,-2.539 -2.86,-2.539 -0.453,0 -0.746,0.277 -0.746,1.039 0,0.222 0.086,0.668 0.125,0.883 z" /><path
         inkscape:connector-curvature="0"
         id="path1493"
         style="fill:#000000;fill-opacity:1;fill-rule:evenodd;stroke:none"
         d="m 1215.367,271.191 h 6.524 c 0.273,0 0.781,0 0.781,0.512 0,0.527 -0.488,0.527 -0.781,0.527 h -6.524 v 6.543 c 0,0.281 0,0.785 -0.512,0.785 -0.539,0 -0.539,-0.484 -0.539,-0.785 v -6.543 h -6.539 c -0.277,0 -0.789,0 -0.789,-0.508 0,-0.531 0.485,-0.531 0.789,-0.531 h 6.539 v -6.555 c 0,-0.273 0,-0.781 0.516,-0.781 0.535,0 0.535,0.489 0.535,0.781 z" /><path
         inkscape:connector-curvature="0"
         id="path1495"
         style="fill:#000000;fill-opacity:1;fill-rule:evenodd;stroke:none"
         d="m 1231.352,279.926 v 0.144 0.027 0.098 l -0.01,0.016 v 0.039 0.011 0.02 l -0.01,0.012 v 0.019 l -0.012,0.035 v 0.024 l -0.015,0.019 -0.012,0.02 -0.012,0.016 -0.031,0.031 -0.015,0.012 -0.028,0.011 -0.047,0.016 -0.023,0.012 h -0.031 l -0.012,0.003 h -0.02 l -0.019,0.008 h -0.074 l -0.016,0.004 h -0.246 c -1.363,-1.344 -3.297,-1.363 -4.18,-1.363 v -0.766 c 0.524,0 1.922,0 3.09,0.594 v -10.871 c 0,-0.707 0,-0.984 -2.133,-0.984 h -0.8 v -0.766 c 0.382,0.019 3.003,0.086 3.796,0.086 0.657,0 3.348,-0.067 3.813,-0.086 v 0.766 h -0.817 c -2.128,0 -2.128,0.277 -2.128,0.984 v 11.809 z" /><path
         inkscape:connector-curvature="0"
         id="path1497"
         style="fill:#000000;fill-opacity:1;fill-rule:evenodd;stroke:none"
         d="m 1242.785,292.687 v 0.297 0.051 0.047 l -0.01,0.051 v 0.05 l -0.01,0.043 v 0.039 l -0.01,0.043 -0.023,0.086 -0.012,0.039 -0.02,0.036 -0.019,0.039 -0.016,0.035 -0.019,0.031 -0.024,0.031 -0.055,0.055 -0.031,0.023 -0.019,0.008 -0.012,0.012 -0.02,0.012 -0.019,0.004 -0.039,0.019 -0.02,0.008 -0.023,0.004 -0.02,0.008 -0.023,0.003 h -0.027 l -0.024,0.008 h -0.023 l -0.032,0.004 h -0.054 c -0.614,0 -0.614,-0.543 -0.614,-1.086 v -28.289 c 0,-0.551 0,-1.094 0.614,-1.094 0.609,0 0.609,0.543 0.609,1.094 v 28.289 z" /><path
         inkscape:connector-curvature="0"
         id="path1499"
         style="fill:#000000;fill-opacity:1;fill-rule:evenodd;stroke:none"
         d="m 1252.812,279.875 -0.101,0.019 -0.117,0.024 -0.117,0.027 -0.118,0.024 -0.121,0.023 -0.129,0.023 -0.257,0.063 -0.254,0.066 -0.129,0.039 -0.387,0.129 -0.121,0.047 -0.125,0.055 -0.113,0.055 -0.114,0.062 -0.109,0.066 -0.102,0.067 -0.105,0.07 -0.09,0.078 -0.086,0.078 -0.082,0.086 -0.074,0.094 -0.059,0.098 -0.082,0.152 -0.023,0.055 -0.02,0.054 -0.015,0.063 -0.02,0.055 -0.012,0.062 -0.01,0.059 v 0.066 l -0.01,0.063 v 0.066 c 0,1.887 2.828,1.887 3.41,1.887 2.285,0 3.441,-0.883 3.594,-2.551 0.031,-0.461 0.058,-0.613 0.699,-0.613 0.734,0 0.734,0.152 0.734,0.851 v 2.434 c 0,0.582 0,0.851 -0.55,0.851 -0.118,0 -0.184,0 -1.371,-0.578 -0.793,0.395 -1.868,0.578 -3.079,0.578 -0.918,0 -5.609,0 -5.609,-3.984 0,-1.223 0.613,-2.047 1.227,-2.562 1.211,-1.071 2.367,-1.254 4.722,-1.676 1.098,-0.192 3.383,-0.582 3.383,-2.379 0,-2.281 -2.805,-2.281 -3.484,-2.281 -3.227,0 -4.024,2.211 -4.383,3.535 -0.156,0.422 -0.309,0.422 -0.731,0.422 -0.734,0 -0.734,-0.184 -0.734,-0.883 v -3.328 c 0,-0.567 0,-0.848 0.551,-0.848 0.215,0 0.269,0 0.914,0.457 0.027,0 0.707,0.461 0.793,0.52 1.402,-0.977 2.992,-0.977 3.59,-0.977 0.949,0 5.64,0 5.64,4.445 0,1.317 -0.609,2.379 -1.668,3.231 -1.187,0.887 -2.171,1.07 -4.547,1.461 z" /><path
         inkscape:connector-curvature="0"
         id="path1501"
         style="fill:#000000;fill-opacity:1;fill-rule:evenodd;stroke:none"
         d="m 1265.434,274.793 h 2.171 c 0.399,0 0.672,0 0.672,0.465 0,0.3 -0.273,0.3 -0.629,0.3 h -2.023 l 0.781,3.149 c 0.02,0.109 0.067,0.215 0.067,0.301 0,0.39 -0.293,0.683 -0.723,0.683 -0.535,0 -0.855,-0.359 -1.008,-0.918 -0.14,-0.531 0.137,0.492 -0.808,-3.215 h -2.172 c -0.403,0 -0.676,0 -0.676,-0.472 0,-0.293 0.25,-0.293 0.641,-0.293 h 2.011 l -1.246,-5.028 c -0.137,-0.539 -0.332,-1.304 -0.332,-1.578 0,-1.261 1.07,-2.027 2.289,-2.027 2.375,0 3.707,2.98 3.707,3.262 0,0.273 -0.277,0.273 -0.344,0.273 -0.25,0 -0.273,-0.047 -0.437,-0.402 -0.602,-1.344 -1.695,-2.539 -2.859,-2.539 -0.446,0 -0.746,0.277 -0.746,1.039 0,0.222 0.085,0.668 0.121,0.883 z" /><path
         inkscape:connector-curvature="0"
         id="path1503"
         style="fill:#000000;fill-opacity:1;fill-rule:evenodd;stroke:none"
         d="m 1279.707,278.535 v 0.226 l -0.01,0.239 v 0.238 l -0.011,0.254 -0.024,0.512 -0.039,0.539 -0.047,0.562 -0.066,0.582 -0.082,0.594 -0.098,0.617 -0.121,0.625 -0.141,0.629 -0.164,0.641 -0.183,0.648 -0.215,0.656 -0.238,0.657 -0.137,0.324 -0.133,0.324 -0.148,0.324 -0.153,0.325 c -1.824,3.742 -4.449,5.722 -4.754,5.722 -0.175,0 -0.304,-0.113 -0.304,-0.297 0,-0.093 0,-0.152 0.574,-0.703 2.992,-3.012 4.734,-7.863 4.734,-14.238 0,-5.203 -1.129,-10.57 -4.918,-14.41 -0.39,-0.364 -0.39,-0.43 -0.39,-0.516 0,-0.183 0.129,-0.305 0.304,-0.305 0.305,0 3.043,2.075 4.852,5.942 1.547,3.344 1.91,6.726 1.91,9.289 z" /><path
         inkscape:connector-curvature="0"
         id="path1505"
         style="fill:#000000;fill-opacity:1;fill-rule:evenodd;stroke:none"
         d="m 1156.07,133.336 0.129,0.785 2.074,8.293 c 0.266,1.066 0.332,1.156 1.641,1.156 h 2.93 c 2.531,0 4.148,-0.82 4.148,-2.922 0,-1.195 -0.613,-3.812 -1.801,-4.914 -1.527,-1.363 -3.351,-1.613 -4.703,-1.613 h -4.289 l -0.129,-0.785 h 5.184 c 4.332,0 8.562,3.164 8.562,6.578 0,2.347 -2.004,4.605 -6,4.605 h -9.875 c -0.578,0 -0.914,0 -0.914,-0.582 0,-0.367 0.274,-0.367 0.887,-0.367 0.391,0 0.945,-0.023 1.309,-0.055 0.488,-0.066 0.672,-0.152 0.672,-0.488 0,-0.125 -0.032,-0.223 -0.129,-0.582 l -4.078,-16.363 c -0.309,-1.196 -0.364,-1.434 -2.774,-1.434 -0.512,0 -0.852,0 -0.852,-0.586 0,-0.359 0.364,-0.359 0.45,-0.359 0.863,0 3.019,0.098 3.871,0.098 0.644,0 1.308,-0.043 1.953,-0.043 0.676,0 1.344,-0.055 1.988,-0.055 0.207,0 0.598,0 0.598,0.609 0,0.336 -0.262,0.336 -0.852,0.336 -1.125,0 -1.972,0 -1.972,0.547 0,0.176 0.054,0.328 0.086,0.512 z" /><path
         inkscape:connector-curvature="0"
         id="path1507"
         style="fill:#000000;fill-opacity:1;fill-rule:evenodd;stroke:none"
         d="m 1180.781,116.39 v 0.055 l -0.01,0.012 v 0.008 0.011 l -0.01,0.012 v 0.012 l -0.01,0.011 -0.012,0.02 -0.01,0.012 -0.023,0.039 -0.019,0.015 -0.012,0.02 -0.02,0.023 -0.011,0.012 v 0.016 l -0.012,0.011 -0.016,0.012 -0.011,0.012 -0.012,0.019 -0.024,0.024 -0.011,0.019 -0.02,0.012 -0.012,0.02 -0.019,0.015 -0.031,0.039 -0.207,0.207 c -3.805,3.84 -4.778,9.598 -4.778,14.258 0,5.305 1.157,10.613 4.903,14.414 0.39,0.375 0.39,0.434 0.39,0.528 0,0.214 -0.109,0.296 -0.293,0.296 -0.308,0 -3.047,-2.066 -4.847,-5.933 -1.559,-3.356 -1.918,-6.738 -1.918,-9.305 0,-2.379 0.328,-6.055 2.004,-9.504 1.824,-3.75 4.453,-5.726 4.761,-5.726 0.184,0 0.293,0.086 0.293,0.304 z" /><path
         inkscape:connector-curvature="0"
         id="path1509"
         style="fill:#000000;fill-opacity:1;fill-rule:evenodd;stroke:none"
         d="m 1188.945,132.656 -0.101,0.02 -0.117,0.023 -0.118,0.027 -0.242,0.047 -0.125,0.024 -0.254,0.062 -0.258,0.067 -0.128,0.039 -0.137,0.043 -0.121,0.043 -0.129,0.043 -0.121,0.046 -0.121,0.055 -0.118,0.055 -0.117,0.062 -0.109,0.067 -0.106,0.066 -0.097,0.07 -0.09,0.079 -0.086,0.078 -0.082,0.086 -0.07,0.093 -0.071,0.098 -0.054,0.102 -0.024,0.05 -0.019,0.055 -0.024,0.055 -0.019,0.062 -0.012,0.055 -0.012,0.062 -0.011,0.059 -0.01,0.066 v 0.063 0.066 c 0,1.887 2.832,1.887 3.414,1.887 2.285,0 3.441,-0.883 3.598,-2.551 0.023,-0.461 0.054,-0.613 0.695,-0.613 0.734,0 0.734,0.152 0.734,0.852 v 2.433 c 0,0.582 0,0.852 -0.554,0.852 -0.114,0 -0.18,0 -1.368,-0.578 -0.793,0.394 -1.863,0.578 -3.074,0.578 -0.918,0 -5.609,0 -5.609,-3.985 0,-1.222 0.609,-2.047 1.222,-2.562 1.211,-1.071 2.368,-1.254 4.723,-1.676 1.094,-0.191 3.383,-0.582 3.383,-2.379 0,-2.281 -2.801,-2.281 -3.481,-2.281 -3.23,0 -4.027,2.211 -4.386,3.535 -0.153,0.422 -0.305,0.422 -0.731,0.422 -0.73,0 -0.73,-0.184 -0.73,-0.883 v -3.328 c 0,-0.566 0,-0.848 0.547,-0.848 0.215,0 0.269,0 0.914,0.457 0.023,0 0.703,0.461 0.789,0.52 1.406,-0.977 2.992,-0.977 3.597,-0.977 0.946,0 5.641,0 5.641,4.446 0,1.316 -0.613,2.379 -1.676,3.23 -1.183,0.887 -2.168,1.07 -4.543,1.461 z" /><path
         inkscape:connector-curvature="0"
         id="path1511"
         style="fill:#000000;fill-opacity:1;fill-rule:evenodd;stroke:none"
         d="m 1201.566,127.574 h 2.168 c 0.403,0 0.68,0 0.68,0.465 0,0.301 -0.277,0.301 -0.633,0.301 h -2.023 l 0.781,3.148 c 0.02,0.109 0.07,0.215 0.07,0.301 0,0.39 -0.297,0.683 -0.73,0.683 -0.531,0 -0.852,-0.359 -1.004,-0.918 -0.141,-0.531 0.137,0.493 -0.813,-3.214 h -2.164 c -0.406,0 -0.679,0 -0.679,-0.473 0,-0.293 0.242,-0.293 0.636,-0.293 h 2.016 l -1.254,-5.027 c -0.125,-0.539 -0.324,-1.305 -0.324,-1.578 0,-1.262 1.074,-2.028 2.289,-2.028 2.367,0 3.707,2.981 3.707,3.262 0,0.273 -0.273,0.273 -0.344,0.273 -0.25,0 -0.281,-0.047 -0.437,-0.402 -0.606,-1.348 -1.696,-2.539 -2.86,-2.539 -0.453,0 -0.746,0.277 -0.746,1.039 0,0.223 0.086,0.668 0.125,0.883 z" /><path
         inkscape:connector-curvature="0"
         id="path1513"
         style="fill:#000000;fill-opacity:1;fill-rule:evenodd;stroke:none"
         d="m 1215.367,123.972 h 6.524 c 0.273,0 0.781,0 0.781,0.512 0,0.527 -0.488,0.527 -0.781,0.527 h -6.524 v 6.543 c 0,0.282 0,0.786 -0.512,0.786 -0.539,0 -0.539,-0.485 -0.539,-0.786 v -6.543 h -6.539 c -0.277,0 -0.789,0 -0.789,-0.507 0,-0.532 0.485,-0.532 0.789,-0.532 h 6.539 v -6.554 c 0,-0.274 0,-0.782 0.516,-0.782 0.535,0 0.535,0.489 0.535,0.782 z" /><path
         inkscape:connector-curvature="0"
         id="path1515"
         style="fill:#000000;fill-opacity:1;fill-rule:evenodd;stroke:none"
         d="m 1231.352,132.707 v 0.144 0.028 0.097 l -0.01,0.016 v 0.039 0.012 0.019 l -0.01,0.012 v 0.02 l -0.012,0.035 v 0.023 l -0.015,0.02 -0.012,0.019 -0.012,0.016 -0.031,0.031 -0.015,0.012 -0.028,0.011 -0.047,0.016 -0.023,0.012 h -0.031 l -0.012,0.004 h -0.02 l -0.019,0.008 h -0.074 l -0.016,0.003 h -0.246 c -1.363,-1.343 -3.297,-1.363 -4.18,-1.363 v -0.765 c 0.524,0 1.922,0 3.09,0.593 v -10.871 c 0,-0.707 0,-0.984 -2.133,-0.984 h -0.8 v -0.766 c 0.382,0.02 3.003,0.086 3.796,0.086 0.657,0 3.348,-0.066 3.813,-0.086 v 0.766 h -0.817 c -2.128,0 -2.128,0.277 -2.128,0.984 v 11.809 z" /><path
         inkscape:connector-curvature="0"
         id="path1517"
         style="fill:#000000;fill-opacity:1;fill-rule:evenodd;stroke:none"
         d="m 1242.785,145.469 v 0.296 0.051 0.047 l -0.01,0.051 v 0.051 l -0.01,0.039 v 0.043 l -0.01,0.043 -0.023,0.086 -0.012,0.039 -0.02,0.035 -0.019,0.039 -0.016,0.035 -0.019,0.031 -0.024,0.031 -0.055,0.055 -0.031,0.024 -0.019,0.007 -0.012,0.012 -0.02,0.012 -0.019,0.004 -0.039,0.019 -0.02,0.008 -0.023,0.004 -0.02,0.008 -0.023,0.004 h -0.027 l -0.024,0.008 h -0.023 l -0.032,0.003 h -0.054 c -0.614,0 -0.614,-0.543 -0.614,-1.085 v -28.29 c 0,-0.55 0,-1.093 0.614,-1.093 0.609,0 0.609,0.543 0.609,1.093 v 28.29 z" /><path
         inkscape:connector-curvature="0"
         id="path1519"
         style="fill:#000000;fill-opacity:1;fill-rule:evenodd;stroke:none"
         d="m 1252.812,132.656 -0.101,0.02 -0.117,0.023 -0.117,0.027 -0.118,0.024 -0.121,0.023 -0.129,0.024 -0.257,0.062 -0.254,0.067 -0.129,0.039 -0.387,0.129 -0.121,0.046 -0.125,0.055 -0.113,0.055 -0.114,0.062 -0.109,0.067 -0.102,0.066 -0.105,0.07 -0.09,0.079 -0.086,0.078 -0.082,0.086 -0.074,0.093 -0.059,0.098 -0.082,0.152 -0.023,0.055 -0.02,0.055 -0.015,0.062 -0.02,0.055 -0.012,0.062 -0.01,0.059 v 0.066 l -0.01,0.063 v 0.066 c 0,1.887 2.828,1.887 3.41,1.887 2.285,0 3.441,-0.883 3.594,-2.551 0.031,-0.461 0.058,-0.613 0.699,-0.613 0.734,0 0.734,0.152 0.734,0.852 v 2.433 c 0,0.582 0,0.852 -0.55,0.852 -0.118,0 -0.184,0 -1.371,-0.578 -0.793,0.394 -1.868,0.578 -3.079,0.578 -0.918,0 -5.609,0 -5.609,-3.985 0,-1.222 0.613,-2.047 1.227,-2.562 1.211,-1.071 2.367,-1.254 4.722,-1.676 1.098,-0.191 3.383,-0.582 3.383,-2.379 0,-2.281 -2.805,-2.281 -3.484,-2.281 -3.227,0 -4.024,2.211 -4.383,3.535 -0.156,0.422 -0.309,0.422 -0.731,0.422 -0.734,0 -0.734,-0.184 -0.734,-0.883 v -3.328 c 0,-0.566 0,-0.848 0.551,-0.848 0.215,0 0.269,0 0.914,0.457 0.027,0 0.707,0.461 0.793,0.52 1.402,-0.977 2.992,-0.977 3.59,-0.977 0.949,0 5.64,0 5.64,4.446 0,1.316 -0.609,2.379 -1.668,3.23 -1.187,0.887 -2.171,1.07 -4.547,1.461 z" /><path
         inkscape:connector-curvature="0"
         id="path1521"
         style="fill:#000000;fill-opacity:1;fill-rule:evenodd;stroke:none"
         d="m 1265.434,127.574 h 2.171 c 0.399,0 0.672,0 0.672,0.465 0,0.301 -0.273,0.301 -0.629,0.301 h -2.023 l 0.781,3.148 c 0.02,0.109 0.067,0.215 0.067,0.301 0,0.39 -0.293,0.683 -0.723,0.683 -0.535,0 -0.855,-0.359 -1.008,-0.918 -0.14,-0.531 0.137,0.493 -0.808,-3.214 h -2.172 c -0.403,0 -0.676,0 -0.676,-0.473 0,-0.293 0.25,-0.293 0.641,-0.293 h 2.011 l -1.246,-5.027 c -0.137,-0.539 -0.332,-1.305 -0.332,-1.578 0,-1.262 1.07,-2.028 2.289,-2.028 2.375,0 3.707,2.981 3.707,3.262 0,0.273 -0.277,0.273 -0.344,0.273 -0.25,0 -0.273,-0.047 -0.437,-0.402 -0.602,-1.348 -1.695,-2.539 -2.859,-2.539 -0.446,0 -0.746,0.277 -0.746,1.039 0,0.223 0.085,0.668 0.121,0.883 z" /><path
         inkscape:connector-curvature="0"
         id="path1523"
         style="fill:#000000;fill-opacity:1;fill-rule:evenodd;stroke:none"
         d="m 1277.086,123.73 v 0.184 0.183 l -0.012,0.18 -0.019,0.172 -0.02,0.164 -0.023,0.16 -0.024,0.156 -0.031,0.149 -0.035,0.148 -0.043,0.141 -0.043,0.133 -0.043,0.129 -0.055,0.121 -0.058,0.117 -0.055,0.117 -0.059,0.102 -0.066,0.097 -0.07,0.098 -0.074,0.086 -0.071,0.082 -0.082,0.078 -0.078,0.067 -0.086,0.062 -0.09,0.063 -0.086,0.046 -0.097,0.043 -0.098,0.039 -0.203,0.055 -0.106,0.016 -0.109,0.008 -0.109,0.003 c -1.004,0 -1.617,-0.761 -1.617,-1.613 0,-0.82 0.613,-1.613 1.617,-1.613 0.367,0 0.765,0.121 1.07,0.391 0.086,0.066 0.129,0.097 0.152,0.097 0.032,0 0.063,-0.031 0.063,-0.461 0,-2.254 -1.067,-4.086 -2.074,-5.09 -0.336,-0.328 -0.336,-0.394 -0.336,-0.48 0,-0.223 0.152,-0.336 0.304,-0.336 0.336,0 2.77,2.34 2.77,5.906 z" /><path
         inkscape:connector-curvature="0"
         id="path1525"
         style="fill:#000000;fill-opacity:1;fill-rule:evenodd;stroke:none"
         d="m 1295.777,135.222 -0.054,0.102 -0.055,0.105 -0.059,0.098 -0.054,0.098 -0.059,0.097 -0.062,0.098 -0.067,0.09 -0.066,0.086 -0.071,0.094 -0.07,0.078 -0.074,0.086 -0.074,0.082 -0.078,0.07 -0.082,0.074 -0.086,0.067 -0.086,0.07 -0.082,0.066 -0.094,0.055 -0.09,0.063 -0.102,0.046 -0.097,0.051 -0.098,0.047 -0.101,0.039 -0.106,0.043 -0.109,0.027 -0.11,0.032 -0.109,0.023 -0.234,0.039 -0.121,0.012 -0.125,0.008 h -0.125 l 0.027,-0.668 c 1.976,0 2.406,-2.496 2.406,-2.676 0,-0.195 -0.055,-0.371 -0.086,-0.523 l -1.531,-5.977 c -0.152,-0.547 -0.152,-0.602 -0.609,-1.125 -1.34,-1.68 -2.59,-2.16 -3.438,-2.16 -1.523,0 -1.953,1.668 -1.953,2.863 0,1.524 0.973,5.266 1.672,6.672 0.945,1.801 2.324,2.926 3.539,2.926 l -0.027,0.668 c -3.571,0 -7.344,-4.473 -7.344,-8.926 0,-2.871 1.672,-4.879 4.051,-4.879 0.605,0 2.136,0.129 3.957,2.289 0.25,-1.285 1.308,-2.289 2.773,-2.289 1.07,0 1.766,0.699 2.258,1.68 0.512,1.093 0.914,2.961 0.914,3.015 0,0.305 -0.274,0.305 -0.359,0.305 -0.305,0 -0.336,-0.121 -0.434,-0.551 -0.516,-1.98 -1.07,-3.773 -2.313,-3.773 -0.82,0 -0.918,0.789 -0.918,1.398 0,0.676 0.063,0.914 0.391,2.258 0.348,1.281 0.406,1.586 0.68,2.742 l 1.09,4.262 c 0.218,0.852 0.218,0.918 0.218,1.035 0,0.527 -0.371,0.832 -0.886,0.832 -0.727,0 -1.188,-0.68 -1.278,-1.344 z" /><path
         inkscape:connector-curvature="0"
         id="path1527"
         style="fill:#000000;fill-opacity:1;fill-rule:evenodd;stroke:none"
         d="m 1305.734,127.574 h 2.168 c 0.403,0 0.68,0 0.68,0.465 0,0.301 -0.277,0.301 -0.633,0.301 h -2.023 l 0.781,3.148 c 0.02,0.109 0.07,0.215 0.07,0.301 0,0.39 -0.297,0.683 -0.73,0.683 -0.531,0 -0.848,-0.359 -1.004,-0.918 -0.141,-0.531 0.137,0.493 -0.813,-3.214 h -2.164 c -0.406,0 -0.679,0 -0.679,-0.473 0,-0.293 0.242,-0.293 0.64,-0.293 h 2.016 l -1.25,-5.027 c -0.133,-0.539 -0.332,-1.305 -0.332,-1.578 0,-1.262 1.074,-2.028 2.289,-2.028 2.367,0 3.707,2.981 3.707,3.262 0,0.273 -0.273,0.273 -0.34,0.273 -0.254,0 -0.277,-0.047 -0.441,-0.402 -0.602,-1.348 -1.696,-2.539 -2.86,-2.539 -0.449,0 -0.746,0.277 -0.746,1.039 0,0.223 0.086,0.668 0.125,0.883 z" /><path
         inkscape:connector-curvature="0"
         id="path1529"
         style="fill:#000000;fill-opacity:1;fill-rule:evenodd;stroke:none"
         d="m 1320.156,131.316 v 0.465 l -0.01,0.238 -0.011,0.254 -0.024,0.512 -0.039,0.539 -0.047,0.562 -0.07,0.583 -0.078,0.593 -0.098,0.617 -0.121,0.625 -0.14,0.629 -0.168,0.641 -0.184,0.648 -0.211,0.657 -0.238,0.656 -0.137,0.324 -0.133,0.324 -0.148,0.325 -0.153,0.324 c -1.824,3.742 -4.449,5.722 -4.753,5.722 -0.176,0 -0.305,-0.113 -0.305,-0.296 0,-0.094 0,-0.153 0.574,-0.704 2.992,-3.011 4.734,-7.863 4.734,-14.238 0,-5.203 -1.132,-10.57 -4.91,-14.41 -0.398,-0.363 -0.398,-0.43 -0.398,-0.516 0,-0.183 0.129,-0.304 0.305,-0.304 0.304,0 3.039,2.074 4.851,5.937 1.547,3.348 1.91,6.731 1.91,9.293 z" /><path
         inkscape:connector-curvature="0"
         id="path1531"
         style="fill:#767676;fill-opacity:1;fill-rule:evenodd;stroke:none"
         d="m 1195.73,232.07 c 0,-5.719 -4.66,-10.355 -10.406,-10.355 -5.75,0 -10.41,4.636 -10.41,10.355 0,5.715 4.66,10.352 10.41,10.352 5.746,0 10.406,-4.637 10.406,-10.352 z" /><path
         inkscape:connector-curvature="0"
         id="path1533"
         style="fill:#767676;fill-opacity:1;fill-rule:evenodd;stroke:none"
         d="m 1314.488,231.961 c 0,-5.715 -4.66,-10.352 -10.406,-10.352 -5.75,0 -10.41,4.637 -10.41,10.352 0,5.718 4.66,10.355 10.41,10.355 5.746,0 10.406,-4.637 10.406,-10.355 z" /><path
         inkscape:connector-curvature="0"
         id="path1535"
         style="fill:none;stroke:#000000;stroke-width:3.2;stroke-linecap:butt;stroke-linejoin:miter;stroke-miterlimit:4;stroke-dasharray:none;stroke-opacity:1"
         d="m 1195.047,232.09 h 93.648" /><g
         transform="matrix(-1,0,0,1,0,342.57788)"
         id="g1537"><path
           inkscape:connector-curvature="0"
           id="path1539"
           style="fill:#000000;fill-opacity:1;fill-rule:evenodd;stroke:#000000;stroke-width:1.6;stroke-linecap:butt;stroke-linejoin:miter;stroke-miterlimit:4;stroke-dasharray:none;stroke-opacity:1"
           d="m -1275.895,-110.488 6.403,-6.399 -22.403,6.399 22.403,6.402 z" /></g><path
         inkscape:connector-curvature="0"
         id="path1541"
         style="fill:none;stroke:#000000;stroke-width:3.2;stroke-linecap:butt;stroke-linejoin:miter;stroke-miterlimit:4;stroke-dasharray:none;stroke-opacity:1"
         d="m 1195.047,75.621 h 93.648" /><g
         transform="matrix(-1,0,0,1,0,342.57788)"
         id="g1543"><path
           inkscape:connector-curvature="0"
           id="path1545"
           style="fill:#000000;fill-opacity:1;fill-rule:evenodd;stroke:#000000;stroke-width:1.6;stroke-linecap:butt;stroke-linejoin:miter;stroke-miterlimit:4;stroke-dasharray:none;stroke-opacity:1"
           d="m -1275.895,-266.957 6.403,-6.398 -22.403,6.398 22.403,6.398 z" /></g><path
         inkscape:connector-curvature="0"
         id="path1547"
         style="fill:none;stroke:#000000;stroke-width:3.2;stroke-linecap:butt;stroke-linejoin:miter;stroke-miterlimit:4;stroke-dasharray:none;stroke-opacity:1"
         d="m 1191.957,67.875 42.652,-38.606" /><g
         transform="matrix(-1,0.905088,0.905088,1,0,342.57788)"
         id="g1549"><path
           inkscape:connector-curvature="0"
           id="path1551"
           style="fill:#000000;fill-opacity:1;fill-rule:evenodd;stroke:#000000;stroke-width:1.18626;stroke-linecap:butt;stroke-linejoin:miter;stroke-miterlimit:4;stroke-dasharray:none;stroke-opacity:1"
           d="m -825.05,442.024 4.748,-4.746 -16.608,4.746 16.606,4.744 z" /></g><path
         inkscape:connector-curvature="0"
         id="path1553"
         style="fill:none;stroke:#000000;stroke-width:3.2;stroke-linecap:butt;stroke-linejoin:miter;stroke-miterlimit:4;stroke-dasharray:none;stroke-opacity:1"
         d="m 1254.715,27.074 39.43,36.996" /><g
         transform="matrix(-1,-0.938341,-0.938341,1,0,342.57788)"
         id="g1555"><path
           inkscape:connector-curvature="0"
           id="path1557"
           style="fill:#000000;fill-opacity:1;fill-rule:evenodd;stroke:#000000;stroke-width:1.16677;stroke-linecap:butt;stroke-linejoin:miter;stroke-miterlimit:4;stroke-dasharray:none;stroke-opacity:1"
           d="m -539.891,-793.867 4.666,-4.669 -16.334,4.669 16.335,4.668 z" /></g></g></g></svg>
